<?xml version="1.0" standalone="no"?>
<!DOCTYPE svg PUBLIC "-//W3C//DTD SVG 1.1//EN" "http://www.w3.org/Graphics/SVG/1.1/DTD/svg11.dtd" >
<svg xmlns="http://www.w3.org/2000/svg" xmlns:xlink="http://www.w3.org/1999/xlink" version="1.1">
<metadata></metadata>
<defs>
<font id="geogrotesque_stencil_b_sbSBd" horiz-adv-x="512" >
<font-face units-per-em="2048" ascent="1536" descent="-512" />
<missing-glyph horiz-adv-x="397" />
<glyph unicode="&#xfb01;" horiz-adv-x="1218" d="M39 854v102q0 26 11.5 36.5t39.5 13.5l103 10h8v112q0 143 109.5 223.5t328.5 80.5h393q28 0 39.5 -12t11.5 -40v-118q0 -28 -11.5 -40t-39.5 -12h-393q-87 0 -128.5 -26.5t-41.5 -83.5v-84h575q28 0 40 -11t12 -38v-914q0 -29 -10 -41t-37 -12h-170q-28 0 -40 12.5 t-12 40.5v750h-737q-28 0 -39.5 11.5t-11.5 39.5zM201 53v688h268v-688q0 -28 -11 -40.5t-38 -12.5h-170q-27 0 -38 12.5t-11 40.5z" />
<glyph unicode="&#xfb02;" horiz-adv-x="1218" d="M39 854v102q0 26 11.5 36.5t39.5 13.5l103 10h8v112q0 143 109.5 223.5t328.5 80.5h405q28 0 40 -12t12 -40v-1327q0 -29 -10 -41t-37 -12h-170q-28 0 -40 12.5t-12 40.5v1157h-188q-87 0 -128.5 -26.5t-41.5 -83.5v-84h170q27 0 39 -10.5t12 -36.5v-115q0 -27 -12 -39 t-39 -12h-549q-28 0 -39.5 11.5t-11.5 39.5zM201 53v688h268v-688q0 -28 -11 -40.5t-38 -12.5h-170q-27 0 -38 12.5t-11 40.5z" />
<glyph unicode="&#xfb03;" horiz-adv-x="1847" d="M39 854v102q0 26 11.5 36.5t39.5 13.5l103 10h8v121q0 143 109.5 223t328.5 80h18q28 0 40 -11.5t12 -39.5v-119q0 -28 -12 -39.5t-40 -11.5h-18q-170 0 -170 -111v-92h358v112q0 142 110.5 223t328.5 81h395q28 0 39.5 -12t11.5 -40v-118q0 -28 -11.5 -40t-39.5 -12 h-395q-87 0 -128.5 -26.5t-41.5 -83.5v-84h577q28 0 40.5 -11t12.5 -38v-914q0 -28 -11 -40.5t-38 -12.5h-170q-27 0 -38 12.5t-11 40.5v750h-1368q-28 0 -39.5 11.5t-11.5 39.5zM201 53v688h268v-688q0 -28 -11 -40.5t-38 -12.5h-170q-27 0 -38 12.5t-11 40.5zM827 53v688 h269v-688q0 -29 -10 -41t-37 -12h-170q-28 0 -40 12.5t-12 40.5z" />
<glyph unicode="&#xfb04;" horiz-adv-x="1847" d="M39 854v102q0 26 11.5 36.5t39.5 13.5l103 10h8v121q0 143 109.5 223t328.5 80h18q28 0 40 -11.5t12 -39.5v-119q0 -28 -12 -39.5t-40 -11.5h-18q-170 0 -170 -111v-92h358v112q0 142 110.5 223t328.5 81h407q28 0 40.5 -12t12.5 -40v-1327q0 -28 -11 -40.5t-38 -12.5 h-170q-27 0 -38 12.5t-11 40.5v1157h-192q-87 0 -128.5 -26.5t-41.5 -83.5v-84h170q28 0 40.5 -10.5t12.5 -36.5v-115q0 -27 -12.5 -39t-40.5 -12h-1176q-28 0 -39.5 11.5t-11.5 39.5zM201 53v688h268v-688q0 -28 -11 -40.5t-38 -12.5h-170q-27 0 -38 12.5t-11 40.5zM827 53 v688h269v-688q0 -29 -10 -41t-37 -12h-170q-28 0 -40 12.5t-12 40.5z" />
<glyph horiz-adv-x="0" />
<glyph horiz-adv-x="682" />
<glyph unicode=" "  horiz-adv-x="397" />
<glyph unicode="&#x09;" horiz-adv-x="397" />
<glyph unicode="&#xa0;" horiz-adv-x="397" />
<glyph unicode="!" horiz-adv-x="567" d="M143 51v166q0 28 11 39.5t39 11.5h178q27 0 38 -11.5t11 -39.5v-166q0 -28 -11 -39.5t-38 -11.5h-178q-28 0 -39 11.5t-11 39.5zM143 799v540q0 54 52 54h180q27 0 38 -12.5t11 -41.5v-540l-27 -375q-3 -29 -12.5 -40t-36.5 -11h-127q-27 0 -37 11t-12 40z" />
<glyph unicode="&#x22;" horiz-adv-x="874" d="M123 1339q-6 54 49 54h166q53 0 47 -54l-20 -333q0 -28 -12 -40t-38 -12h-120q-26 0 -37 12t-13 40zM489 1339q-6 54 50 54h166q53 0 47 -54l-23 -333q0 -28 -10.5 -40t-36.5 -12h-121q-27 0 -37.5 11.5t-13.5 40.5z" />
<glyph unicode="#" horiz-adv-x="1388" d="M121 420v90q0 26 11.5 36.5t39.5 10.5h90l-53 -188h-37q-28 0 -39.5 11.5t-11.5 39.5zM217 760v90q0 26 12.5 36.5t40.5 10.5h90l-53 -186h-37q-28 0 -40.5 11.5t-12.5 37.5zM225 209l244 848q13 53 61 53h121q51 0 37 -53l-242 -848q-9 -28 -22.5 -39.5t-40.5 -11.5 h-121q-52 0 -37 51zM553 369l53 188h139l-53 -188h-139zM651 711l54 186h139l-53 -186h-140zM709 209l241 848q13 53 62 53h123q50 0 36 -53l-243 -848q-8 -27 -22 -39t-40 -12h-123q-49 0 -34 51zM1034 369l58 188h28q27 0 39 -10.5t12 -36.5v-90q0 -27 -12 -39t-39 -12 h-86zM1135 711l51 186h31q28 0 39.5 -10.5t11.5 -36.5v-90q0 -26 -11.5 -37.5t-39.5 -11.5h-82z" />
<glyph unicode="$" horiz-adv-x="1097" d="M137 434v47q0 47 47 47h152q47 0 47 -47v-37q0 -74 131 -84v-360h-70q-27 0 -38 12.5t-11 40.5v131q-132 26 -195 94t-63 156zM162 883v67q0 85 55.5 154.5t177.5 99.5v135q0 29 11 41.5t38 12.5h70v-361q-106 -9 -106 -82v-22q0 -51 61 -72l295 -104q197 -70 197 -213 v-105q0 -86 -63 -154t-191 -94v-133q0 -29 -10.5 -41t-37.5 -12h-79v360q133 10 133 84v35q0 27 -20.5 43.5t-71.5 36.5l-297 109q-61 22 -111.5 83.5t-50.5 131.5zM580 1032v361h79q27 0 37.5 -12.5t10.5 -41.5v-133q123 -29 182 -100t59 -156v-39q0 -26 -10.5 -36.5 t-38.5 -10.5h-151q-25 0 -35.5 10.5t-10.5 36.5v39q0 72 -122 82z" />
<glyph unicode="%" horiz-adv-x="1779" d="M137 979v201q0 216 291 227v-174q-72 -6 -72 -62v-184q0 -55 72 -61v-176q-291 8 -291 229zM437.5 18q-6.5 18 4.5 35l656 1286q26 54 73 54h142q24 0 30 -16t-6 -38l-655 -1286q-14 -28 -30.5 -40.5t-43.5 -12.5h-141q-23 0 -29.5 18zM485 750v176q72 6 72 61v184 q0 56 -72 62v174q291 -8 291 -227v-201q0 -221 -291 -229zM1004 209v201q0 215 290 229v-176q-71 -6 -71 -60v-184q0 -57 71 -63v-174q-290 8 -290 227zM1352 -18v174q69 6 69 63v184q0 54 -69 60v176q149 -6 219.5 -65.5t70.5 -163.5v-201q0 -219 -290 -227z" />
<glyph unicode="&#x26;" horiz-adv-x="1425" d="M127 309v183q0 83 40 141t132 92q-84 28 -119 79.5t-35 133.5v145q0 316 426 326v-223q-82 -6 -118.5 -43t-36.5 -107v-57q0 -77 49 -114.5t151 -37.5h691q27 0 39 -11t12 -38v-121q0 -27 -12 -39t-39 -12h-709q-102 0 -151.5 -36.5t-49.5 -112.5v-101q0 -142 228 -151 v-221q-498 10 -498 325zM637 1186v223q426 -13 426 -334v-65q0 -27 -10.5 -39.5t-36.5 -12.5h-172q-49 0 -49 52v26q0 70 -38 107t-120 43zM690 -16v221q228 9 228 151v189h268v-228q0 -53 -14.5 -98.5t-50 -88t-91 -73.5t-142 -50.5t-198.5 -22.5z" />
<glyph unicode="'" horiz-adv-x="507" d="M123 1339q-6 54 49 54h166q53 0 47 -54l-20 -333q-3 -29 -13.5 -40.5t-36.5 -11.5h-120q-26 0 -37 12t-13 40z" />
<glyph unicode="(" horiz-adv-x="731" d="M127 -143v1290q0 143 109.5 223t328.5 80h19q28 0 39.5 -11.5t11.5 -39.5v-119q0 -28 -11.5 -39.5t-39.5 -11.5h-19q-85 0 -123.5 -26.5t-38.5 -84.5v-1233q0 -57 38 -83.5t124 -26.5h19q28 0 39.5 -11.5t11.5 -39.5v-119q0 -28 -11.5 -39.5t-39.5 -11.5h-19 q-219 0 -328.5 80t-109.5 223z" />
<glyph unicode=")" horiz-adv-x="731" d="M94 -276q0 27 12.5 39t40.5 12h19q86 0 124 26.5t38 83.5v1233q0 58 -38.5 84.5t-123.5 26.5h-19q-28 0 -40.5 12t-12.5 39v119q0 27 12.5 39t40.5 12h19q219 0 328.5 -80t109.5 -223v-1290q0 -143 -109.5 -223t-328.5 -80h-19q-28 0 -40.5 12t-12.5 39v119z" />
<glyph unicode="*" horiz-adv-x="1107" d="M145.5 883.5q4.5 15.5 30.5 27.5l213 99l-213 100q-26 10 -30.5 26t8.5 42l41 77q26 47 69 19l219 -141l-18 266q-3 28 8.5 39.5t40.5 11.5h88q28 0 39 -11.5t10 -39.5l-20 -260l213 135q44 32 69 -17l41 -79q26 -50 -22 -68l-213 -100l213 -99q27 -11 31 -27.5t-9 -39.5 l-41 -82q-24 -46 -69 -17l-211 134l18 -240q1 -29 -10.5 -41t-38.5 -12h-90q-53 0 -47 53l16 248l-217 -142q-45 -26 -69 19l-41 80q-13 24 -8.5 39.5z" />
<glyph unicode="+" horiz-adv-x="1146" d="M121 633v121q0 27 12 38t39 11h225v-221h-225q-27 0 -39 12t-12 39zM463 293v801q0 28 11 40.5t38 12.5h119q27 0 39 -12.5t12 -40.5v-801q0 -27 -12 -39t-39 -12h-119q-27 0 -38 12t-11 39zM748 582v221h225q28 0 40.5 -11t12.5 -38v-121q0 -27 -12.5 -39t-40.5 -12 h-225z" />
<glyph unicode="," horiz-adv-x="559" d="M43 -90q-19 48 33 63q53 20 72.5 44t19.5 63v137q0 28 11.5 39.5t37.5 11.5h176q27 0 37 -11.5t10 -39.5v-151q0 -234 -295 -304q-27 -6 -40.5 0.5t-22.5 32.5z" />
<glyph unicode="-" horiz-adv-x="892" d="M121 530v121q0 27 12 38t39 11h549q27 0 39 -11t12 -38v-121q0 -49 -51 -49h-549q-51 0 -51 49z" />
<glyph unicode="." d="M119 51v166q0 28 11.5 39.5t39.5 11.5h174q27 0 38 -11.5t11 -39.5v-166q0 -28 -11 -39.5t-38 -11.5h-174q-28 0 -39.5 11.5t-11.5 39.5z" />
<glyph unicode="/" horiz-adv-x="749" d="M29 -250l407 1628q12 54 60 54h186q51 0 39 -54l-408 -1628q-6 -29 -18.5 -41t-38.5 -12h-188q-51 0 -39 53z" />
<glyph unicode="0" horiz-adv-x="1150" d="M98 317v758q0 65 23.5 120.5t73.5 103.5t139 77t209 33v-231q-168 -9 -168 -152v-659q0 -142 168 -154v-229q-120 4 -209 32.5t-139 75.5t-73.5 103t-23.5 122zM608 -16v229q168 12 168 154v659q0 143 -168 152v231q119 -4 208 -33t139 -77t74 -103.5t24 -120.5v-758 q0 -66 -24 -122t-74 -103t-139 -75.5t-208 -32.5z" />
<glyph unicode="1" horiz-adv-x="1150" d="M133 51v129q0 27 11.5 38t39.5 11h824q27 0 39 -11t12 -38v-129q0 -27 -12 -39t-39 -12h-824q-28 0 -39.5 11.5t-11.5 39.5zM133 1124v136q0 46 51 55l506 92q21 4 34 -6.5t13 -42.5v-1067h-276v837l-277 -47q-51 -9 -51 43z" />
<glyph unicode="2" horiz-adv-x="1150" d="M104 950v125q0 65 22 120.5t70 103.5t135.5 77t207.5 33v-227q-166 -9 -166 -152v-80q0 -28 -10.5 -39.5t-36.5 -11.5h-170q-28 0 -40 11.5t-12 39.5zM131 51v178h873q27 0 39 -11t12 -38v-129q0 -27 -12 -39t-39 -12h-820q-28 0 -40.5 12t-12.5 39zM131 291v137 q0 42 11 73t34 52t42.5 32t51.5 25l420 176q82 35 82 121v123q0 143 -168 152v227q97 -3 173.5 -23t126 -51.5t82.5 -74t47 -88.5t14 -97v-162q0 -230 -195 -311l-363 -151q-40 -16 -59.5 -35.5t-19.5 -57.5v-67h-279z" />
<glyph unicode="3" horiz-adv-x="1150" d="M96 317v66q0 27 11 39t38 12h170q27 0 38.5 -12t11.5 -39v-27q0 -140 172 -149v-223q-99 3 -176 22.5t-126.5 50.5t-81 73.5t-44.5 88t-13 98.5zM104 1010v65q0 53 12 98.5t42.5 89t78 74t124.5 50.5t176 22v-223q-164 -9 -164 -150v-26q0 -27 -11 -39.5t-38 -12.5h-170 q-27 0 -38.5 12.5t-11.5 39.5zM360 657v121q0 27 12 38t40 11h139q201 0 201 152v57q0 69 -36 105.5t-114 42.5v225q422 -13 422 -326v-145q0 -82 -35 -133.5t-119 -79.5q92 -34 132 -92t40 -141v-183q0 -66 -22 -120.5t-70.5 -101t-137 -73.5t-210.5 -30v223q168 9 168 149 v101q0 76 -49 112.5t-152 36.5h-157q-28 0 -40 11.5t-12 39.5z" />
<glyph unicode="4" horiz-adv-x="1150" d="M68 428v129q0 17 4 33l235 749q12 54 62 54h178q50 0 37 -54l-232 -731h326v-229h-559q-28 0 -39.5 11t-11.5 38zM743 53v1286q0 28 11.5 41t38.5 13h178q27 0 38 -12.5t11 -41.5v-1286q0 -28 -11 -40.5t-38 -12.5h-178q-27 0 -38.5 12.5t-11.5 40.5z" />
<glyph unicode="5" horiz-adv-x="1150" d="M102 315v66q0 27 11.5 39t38.5 12h170q27 0 38 -12t11 -39v-25q0 -145 172 -151v-223q-124 4 -212.5 32t-137 76t-70 103t-21.5 122zM158 727v168h415q127 0 221.5 -26t148.5 -72t80 -103t26 -125v-254q0 -67 -22 -122.5t-71 -103t-137.5 -75.5t-210.5 -32v223 q84 6 124 43t40 108v174q0 70 -51 107t-150 37h-366q-26 0 -36.5 12.5t-10.5 40.5zM158 956v383q0 28 10.5 41t36.5 13h749q28 0 40 -11.5t12 -38.5v-129q0 -28 -12 -39.5t-40 -11.5h-520v-207h-276z" />
<glyph unicode="6" horiz-adv-x="1150" d="M113 317v760q0 64 21 118.5t67.5 103t133.5 77.5t206 33v-223q-156 -11 -156 -148v-680q0 -143 156 -151v-223q-119 4 -204.5 32t-133 75.5t-69 103t-21.5 122.5zM451 598v223q74 31 163 31q113 0 198 -28t134 -76t72.5 -106.5t23.5 -125.5v-199q0 -53 -13 -98.5t-45 -88 t-81 -73.5t-124.5 -50.5t-172.5 -22.5v223q84 4 123 41t39 110v119q0 77 -46.5 114.5t-146.5 37.5q-85 0 -124 -31zM606 1186v223q96 -3 170 -24t120.5 -52t76.5 -74t41.5 -87t11.5 -95v-53q0 -28 -11 -39.5t-38 -11.5h-170q-27 0 -38 11.5t-11 39.5v14q0 67 -36 104.5 t-116 43.5z" />
<glyph unicode="7" horiz-adv-x="1150" d="M86 1214v129q0 27 12 38.5t39 11.5h889q28 0 40.5 -11.5t12.5 -38.5v-180h-942q-27 0 -39 12t-12 39zM266 53l484 1049h299l-478 -1049q-18 -53 -63 -53h-207q-61 0 -35 53z" />
<glyph unicode="8" horiz-adv-x="1150" d="M113 317v187q0 156 172 219q-152 63 -152 217v135q0 319 410 334v-223q-77 -7 -109.5 -44t-32.5 -108v-51q0 -79 39.5 -116.5t134.5 -37.5q94 0 133.5 37.5t39.5 116.5v51q0 71 -32.5 108t-107.5 44v223q408 -15 408 -334v-135q0 -156 -154 -217q176 -64 176 -219v-187 q0 -67 -21.5 -122.5t-69 -103t-134 -75.5t-205.5 -32v223q82 4 120 41.5t38 109.5v103q0 77 -46 113t-145 36q-100 0 -145 -36t-45 -113v-103q0 -72 37.5 -109.5t120.5 -41.5v-223q-97 3 -172 22.5t-123 50.5t-79 73.5t-43.5 88t-12.5 98.5z" />
<glyph unicode="9" horiz-adv-x="1150" d="M109 877v198q0 66 22 121.5t70 103.5t135 76.5t207 32.5v-223q-162 -9 -162 -152v-119q0 -77 46.5 -114t147.5 -37q86 0 134 31v-222q-72 -32 -172 -32q-112 0 -197 28t-134 76t-73 106.5t-24 125.5zM123 315v54q0 28 11.5 39.5t39.5 11.5h170q26 0 36.5 -11.5 t10.5 -39.5v-15q0 -136 152 -147v-223q-117 4 -202 33t-131 77t-66.5 102.5t-20.5 118.5zM608 -16v223q82 4 119 41.5t37 105.5v680q0 71 -36.5 108.5t-119.5 43.5v223q119 -4 205.5 -32.5t134 -76.5t69 -103.5t21.5 -121.5v-760q0 -51 -12.5 -96t-43.5 -87.5t-79 -73.5 t-123.5 -51t-171.5 -23z" />
<glyph unicode=":" d="M119 51v166q0 28 11.5 39.5t39.5 11.5h174q27 0 38 -11.5t11 -39.5v-166q0 -28 -11 -39.5t-38 -11.5h-174q-28 0 -39.5 11.5t-11.5 39.5zM119 801v168q0 28 11.5 39.5t39.5 11.5h174q27 0 38 -11.5t11 -39.5v-168q0 -27 -11 -39t-38 -12h-174q-27 0 -39 12t-12 39z" />
<glyph unicode=";" horiz-adv-x="593" d="M76 -90q-17 49 33 63q54 20 73 43.5t19 63.5v137q0 28 11.5 39.5t39.5 11.5h174q27 0 38 -11.5t11 -39.5v-151q0 -234 -295 -304q-27 -6 -41.5 0.5t-23.5 32.5zM201 801v168q0 28 11.5 39.5t39.5 11.5h174q27 0 38 -11.5t11 -39.5v-168q0 -27 -11 -39t-38 -12h-174 q-27 0 -39 12t-12 39z" />
<glyph unicode="&#x3c;" horiz-adv-x="1071" d="M121 600v188q0 22 11.5 33.5t35.5 22.5l729 315q25 10 38 -4.5t13 -44.5v-162q0 -25 -11.5 -35.5t-39.5 -21.5zM172 551l305 111l420 -164q19 -7 28 -12.5t16 -16.5t7 -29v-161q0 -30 -13 -45t-38 -5z" />
<glyph unicode="=" horiz-adv-x="1189" d="M121 389v123q0 26 12 36.5t39 10.5h844q28 0 39.5 -10.5t11.5 -36.5v-123q0 -28 -11.5 -39.5t-39.5 -11.5h-844q-27 0 -39 12t-12 39zM121 807v123q0 49 51 49h844q28 0 39.5 -11.5t11.5 -37.5v-123q0 -27 -11.5 -38t-39.5 -11h-844q-27 0 -39 11t-12 38z" />
<glyph unicode="&#x3e;" horiz-adv-x="1071" d="M121 276v166q0 18 7 29t16 16.5t28 12.5l422 162l303 -111l-725 -324q-23 -10 -37 5.5t-14 43.5zM121 946v164q0 30 13.5 45.5t37.5 5.5l731 -315q23 -9 34 -20t11 -35v-191l-776 289q-26 8 -38.5 20.5t-12.5 36.5z" />
<glyph unicode="?" horiz-adv-x="1157" d="M104 950v125q0 65 22.5 120.5t71.5 103.5t137 77t208 33v-227q-84 -4 -127 -43t-43 -109v-80q0 -28 -10 -39.5t-37 -11.5h-170q-28 0 -40 11.5t-12 39.5zM383 51v166q0 28 11.5 39.5t39.5 11.5h178q26 0 36.5 -11.5t10.5 -39.5v-166q0 -28 -10.5 -39.5t-36.5 -11.5h-178 q-28 0 -39.5 11.5t-11.5 39.5zM383 422v141q0 41 10.5 72t31.5 52.5t39.5 34t47.5 26.5l188 96q78 40 78 125v61q0 70 -43 109t-127 43v227q120 -4 209 -33t139 -77t73.5 -103.5t23.5 -120.5v-96q0 -233 -191 -317l-117 -54q-47 -22 -66.5 -45t-19.5 -69v-72 q0 -28 -10.5 -38.5t-36.5 -10.5h-178q-28 0 -39.5 11t-11.5 38z" />
<glyph unicode="@" horiz-adv-x="1953" d="M143 156v718q0 74 16 133.5t67 122t136.5 104.5t233.5 69.5t348 29.5v-215q-163 -1 -271.5 -19t-166.5 -53.5t-80.5 -78.5t-22.5 -105v-694q0 -63 22.5 -106t80.5 -78.5t166.5 -53.5t271.5 -20v-215q-145 1 -262 16t-199.5 39t-144 59.5t-98.5 73.5t-59 85.5t-30 91.5 t-8 96zM551 315q0 34 2 52l25 272q12 144 84.5 221.5t203.5 77.5q101 0 213 -61l-26 -203q-54 28 -103 28q-106 0 -119 -116l-16 -174v-15q0 -84 103 -84q48 0 104 23q0 -104 51 -182q-122 -86 -268 -86q-134 0 -194 63t-60 184zM1010 -90h325q54 0 54 -51v-115 q0 -51 -54 -51h-325v217zM1010 1118v215q144 -1 261.5 -16t199.5 -38.5t144 -58.5t99 -73t59.5 -85.5t30.5 -91.5t8 -96v-479q0 -151 -91 -239t-291 -88q-169 0 -257 76.5t-88 191.5q0 27 2 39l58 495q3 27 15 39.5t38 12.5h154q51 0 45 -52l-43 -421q-4 -51 -2 -92.5 t26 -68t70 -26.5q43 0 67 25t30.5 58.5t6.5 86.5v430q0 50 -13.5 86.5t-49.5 69.5t-96.5 53.5t-156 33t-226.5 13.5z" />
<glyph unicode="A" horiz-adv-x="1134" d="M31 51l383 1290q15 52 63 52h180q49 0 64 -52l383 -1290q3 -11 3 -20q0 -31 -42 -31h-184q-48 0 -60 51l-73 250h-312l62 219h190l-67 228q-14 45 -29 138.5t-23 164.5l-8 71q0 -2 -4 -31t-10 -73t-13.5 -93t-17 -97t-18.5 -78l-201 -699q-8 -27 -21.5 -39t-39.5 -12 h-168q-40 0 -40 31q0 9 3 20z" />
<glyph unicode="B" horiz-adv-x="1216" d="M143 53v1286q0 28 11.5 41t38.5 13h227v-1393h-227q-27 0 -38.5 12.5t-11.5 40.5zM485 0v221h146q105 0 164 38.5t59 113.5v92q0 66 -60 103.5t-163 37.5h-146v209h88q101 0 158 39t57 115v71q0 73 -55.5 102t-165.5 29h-82v222h82q135 0 233.5 -24t154.5 -67t82 -97.5 t26 -121.5v-120q0 -159 -154 -230q105 -37 161 -100.5t56 -147.5v-161q0 -68 -26 -124t-81.5 -102t-154.5 -72t-233 -26h-146z" />
<glyph unicode="C" horiz-adv-x="1165" d="M121 317v758q0 52 13 97.5t45.5 88.5t82.5 74t128.5 51t178.5 23v-231q-170 -12 -170 -152v-659q0 -142 170 -154v-229q-124 4 -214 32t-139.5 75.5t-72 103t-22.5 122.5zM635 -16v229q180 12 180 154v77q0 28 11.5 40t37.5 12h172q26 0 36.5 -12t10.5 -40v-127 q0 -67 -22.5 -122.5t-72.5 -103t-139.5 -75.5t-213.5 -32zM635 1178v231q99 -3 177.5 -23t128.5 -51t82.5 -74t46 -88.5t13.5 -97.5v-98q0 -28 -10.5 -39.5t-36.5 -11.5h-172q-26 0 -37.5 11.5t-11.5 39.5v49q0 70 -46 108.5t-134 43.5z" />
<glyph unicode="D" horiz-adv-x="1259" d="M143 53v1286q0 28 11.5 41t38.5 13h227v-1393h-234q-24 0 -33.5 13t-9.5 40zM485 0v229h154q106 0 164.5 39.5t58.5 114.5v627q0 75 -58.5 114t-164.5 39h-154v230h154q134 0 234 -27.5t156 -75.5t83 -105.5t27 -125.5v-725q0 -68 -27 -125.5t-83 -105.5t-156 -75.5 t-234 -27.5h-154z" />
<glyph unicode="E" horiz-adv-x="1048" d="M143 53v1286q0 28 11.5 41t38.5 13h227v-1393h-227q-27 0 -38.5 12.5t-11.5 40.5zM485 0v229h428q28 0 40 -11t12 -38v-129q0 -28 -12 -39.5t-40 -11.5h-428zM485 610v221h373q28 0 40.5 -11t12.5 -38v-123q0 -26 -12.5 -37.5t-40.5 -11.5h-373zM485 1163v230h408 q27 0 39 -11.5t12 -38.5v-129q0 -27 -12 -39t-39 -12h-408z" />
<glyph unicode="F" horiz-adv-x="1060" d="M143 53v1286q0 28 11.5 41t38.5 13h227v-1340q0 -28 -11 -40.5t-38 -12.5h-178q-27 0 -38.5 12.5t-11.5 40.5zM485 600v231h422q28 0 39.5 -11t11.5 -38v-131q0 -28 -11.5 -39.5t-39.5 -11.5h-422zM485 1163v230h457q27 0 39 -11.5t12 -38.5v-129q0 -27 -12 -39t-39 -12 h-457z" />
<glyph unicode="G" horiz-adv-x="1189" d="M121 317v758q0 52 13 97.5t45.5 88.5t82.5 74t128.5 51t178.5 23v-231q-170 -12 -170 -152v-659q0 -142 170 -154v-229q-124 4 -214 32t-139.5 75.5t-72 103t-22.5 122.5zM561 551v131q0 27 12.5 38t40.5 11h418q27 0 39 -11t12 -38v-365q0 -67 -22.5 -122.5t-72.5 -103 t-139.5 -75.5t-213.5 -32v229q88 6 134 44.5t46 107.5v137h-201q-28 0 -40.5 11t-12.5 38zM635 1178v231q99 -3 177.5 -23t128.5 -51t82.5 -74t46 -88.5t13.5 -97.5v-82q0 -27 -10.5 -39t-36.5 -12h-172q-49 0 -49 51v33q0 70 -46 108.5t-134 43.5z" />
<glyph unicode="H" horiz-adv-x="1280" d="M143 53v1286q0 28 11.5 41t38.5 13h178q27 0 38 -12.5t11 -41.5v-1286q0 -28 -11 -40.5t-38 -12.5h-178q-27 0 -38.5 12.5t-11.5 40.5zM485 600v229h377v510q0 29 11 41.5t38 12.5h179q27 0 38 -12.5t11 -41.5v-1286q0 -28 -11 -40.5t-38 -12.5h-179q-27 0 -38 12.5 t-11 40.5v547h-377z" />
<glyph unicode="I" horiz-adv-x="561" d="M143 53v1286q0 28 11.5 41t38.5 13h178q27 0 38 -12.5t11 -41.5v-1286q0 -28 -11 -40.5t-38 -12.5h-178q-27 0 -38.5 12.5t-11.5 40.5z" />
<glyph unicode="J" horiz-adv-x="1054" d="M33 317v123q0 28 11.5 40t39.5 12h174q26 0 36.5 -12t10.5 -40v-73q0 -140 139 -154v-229q-114 4 -196.5 33t-128 76.5t-66 102.5t-20.5 121zM510 -16v229q72 6 103.5 44t31.5 110v972q0 28 12 41t39 13h178q26 0 37 -13t11 -41v-1022q0 -53 -11.5 -98.5t-41 -88.5 t-75 -73.5t-118 -50t-166.5 -22.5z" />
<glyph unicode="K" horiz-adv-x="1196" d="M143 51v1290q0 27 11.5 39.5t38.5 12.5h178q27 0 38 -12.5t11 -39.5v-1290q0 -27 -11 -39t-38 -12h-178q-27 0 -38.5 12t-11.5 39zM485 580v223l332 538q29 52 82 52h191q27 0 32.5 -15t-8.5 -37l-397 -632l450 -658q13 -19 7 -35t-31 -16h-230q-25 0 -40.5 13t-32.5 38z " />
<glyph unicode="L" horiz-adv-x="976" d="M143 53v1286q0 28 11.5 41t38.5 13h178q27 0 38 -12.5t11 -41.5v-1339h-234q-24 0 -33.5 13t-9.5 40zM485 0v229h389q29 0 41.5 -11t12.5 -38v-129q0 -27 -13 -39t-41 -12h-389z" />
<glyph unicode="M" horiz-adv-x="1527" d="M143 51v1290q0 27 11.5 39.5t38.5 12.5h210v-1352q0 -41 -49 -41h-161q-27 0 -38.5 12t-11.5 39zM469 647v613l244 -609q6 -16 18.5 -51.5t22 -63.5t10.5 -30q0 4 53 141l236 610v-608l-150 -385q-18 -53 -65 -53h-148q-43 0 -65 53zM1118 51v1342h219q27 0 38 -12.5 t11 -39.5v-1290q0 -27 -11 -39t-38 -12h-170q-27 0 -38 12t-11 39z" />
<glyph unicode="N" horiz-adv-x="1280" d="M143 51v1290q0 27 11.5 39.5t38.5 12.5h210v-1342q0 -27 -11 -39t-38 -12h-161q-27 0 -38.5 12t-11.5 39zM469 741v547l342 -633v-551zM877 0v1341q0 52 51 52h162q27 0 37 -12.5t10 -39.5v-1290q0 -27 -10 -39t-37 -12h-213z" />
<glyph unicode="O" horiz-adv-x="1239" d="M121 317v758q0 52 15 98t49.5 88.5t87 73.5t132.5 51t181 23v-231q-90 -5 -138.5 -44t-48.5 -108v-659q0 -70 48.5 -109t138.5 -45v-229q-125 4 -218 32.5t-145 75.5t-77 103t-25 122zM651 -16v229q89 6 139 45.5t50 108.5v659q0 68 -50 107.5t-139 44.5v231 q124 -4 217 -32.5t145.5 -76.5t77.5 -104t25 -121v-758q0 -66 -25 -122t-77.5 -103t-145.5 -75.5t-217 -32.5z" />
<glyph unicode="P" horiz-adv-x="1187" d="M143 53v1286q0 28 11.5 41t38.5 13h227v-1340q0 -28 -11 -40.5t-38 -12.5h-178q-27 0 -38.5 12.5t-11.5 40.5zM485 494v229h138q104 0 162.5 38.5t58.5 112.5v136q0 75 -58 114t-163 39h-138v230h138q134 0 233 -27.5t154.5 -75.5t81.5 -105.5t26 -125.5v-232 q0 -54 -15.5 -101t-52 -90.5t-92.5 -74t-141.5 -49t-193.5 -18.5h-138z" />
<glyph unicode="Q" horiz-adv-x="1236" d="M121 317v758q0 52 15 98t49.5 88.5t87 73.5t132.5 51t181 23v-227q-90 -5 -138.5 -44t-48.5 -108v-668q0 -140 187 -153v-225q-125 4 -218 32.5t-145 75.5t-77 103t-25 122zM651 -16v225q90 6 139.5 45t49.5 108v668q0 68 -50 107.5t-139 44.5v227q124 -4 217 -32.5 t145.5 -76.5t77.5 -104t25 -121v-758q0 -95 -53 -171.5t-164 -118.5l176 -236q15 -23 15 -41q0 -22 -23 -37l-98 -71q-22 -13 -40 -13q-24 0 -40 23z" />
<glyph unicode="R" horiz-adv-x="1228" d="M143 53v1286q0 28 11.5 41t38.5 13h227v-1340q0 -28 -11 -40.5t-38 -12.5h-178q-27 0 -38.5 12.5t-11.5 40.5zM485 530v230h138q105 0 163 39t58 114v97q0 75 -58 114t-163 39h-138v230h138q134 0 233 -27.5t154.5 -75.5t81.5 -105.5t26 -125.5v-195q0 -98 -54 -175.5 t-171 -119.5l221 -516q10 -24 -4 -38.5t-43 -14.5h-180q-8 0 -14.5 2.5t-10.5 5t-8.5 9.5t-6 10t-6 13t-5.5 13l-201 477h-150z" />
<glyph unicode="S" horiz-adv-x="1171" d="M102 317v129q0 28 11.5 41t38.5 13h172q27 0 37 -12.5t10 -41.5v-92q0 -70 49 -107t139 -40v-223q-124 4 -215.5 32.5t-142.5 75.5t-75 103t-24 122zM129 958v117q0 66 20.5 121t67 103t133.5 77t209 33v-225q-162 -9 -162 -146v-30q0 -44 25.5 -71.5t56.5 -39.5 l359 -127q109 -39 175 -114.5t66 -180.5v-158q0 -66 -23.5 -122t-74 -103.5t-141.5 -75.5t-215 -32v223q182 9 182 147v68q0 28 -15 52.5t-43.5 43t-54 30.5t-61.5 25l-318 119q-78 29 -132 103.5t-54 162.5zM625 1186v223q122 -4 211 -32.5t137.5 -76.5t71 -103.5 t22.5 -121.5v-84q0 -51 -51 -51h-172q-49 0 -49 51v47q0 142 -170 148z" />
<glyph unicode="T" horiz-adv-x="1009" d="M23 1214v129q0 27 12 38.5t39 11.5h860q28 0 39.5 -11t11.5 -39v-129q0 -28 -11.5 -39.5t-39.5 -11.5h-860q-27 0 -39 12t-12 39zM365 53v1049h278v-1049q0 -28 -11 -40.5t-38 -12.5h-178q-51 0 -51 53z" />
<glyph unicode="U" horiz-adv-x="1259" d="M131 317v1022q0 28 12 41t39 13h178q50 0 50 -54v-972q0 -70 48 -109t138 -45v-229q-124 4 -217 32.5t-145.5 75.5t-77.5 103t-25 122zM662 -16v229q90 6 139 45t49 109v972q0 28 12 41t39 13h178q27 0 37 -12.5t10 -41.5v-1022q0 -66 -24.5 -122t-77 -103t-145 -75.5 t-217.5 -32.5z" />
<glyph unicode="V" horiz-adv-x="1134" d="M31 1341q-4 12 -4 21q0 31 41 31h196q47 0 60 -52l372 -1341h-219q-48 0 -63 51zM610 569l215 772q13 52 62 52h178q43 0 43 -31q0 -9 -4 -21l-367 -1235z" />
<glyph unicode="W" horiz-adv-x="1716" d="M29 1341q-3 10 -3 19q0 33 42 33h182q46 0 59 -52l332 -1341h-229q-46 0 -58 51zM551 629l176 712q13 52 61 52h166q49 0 62 -52l330 -1341h-222q-45 0 -57 51l-180 715q-17 74 -27 184q-11 -103 -31 -186l-151 -651zM1257 629l177 712q13 52 59 52h156q42 0 42 -33 q0 -8 -3 -19l-304 -1226z" />
<glyph unicode="X" horiz-adv-x="1175" d="M48.5 18.5q-4.5 18.5 8.5 40.5l334 596l144 -245l-193 -359q-26 -51 -72 -51h-192q-25 0 -29.5 18.5zM61.5 1375.5q4.5 17.5 30.5 17.5h205q46 0 76 -52l745 -1290q13 -20 7 -35.5t-33 -15.5h-205q-44 0 -74 51l-741 1284q-15 23 -10.5 40.5zM633 1012l180 329 q29 52 74 52h190q25 0 31.5 -15t-6.5 -37l-332 -565z" />
<glyph unicode="Y" horiz-adv-x="1116" d="M30 1378.5q10 14.5 38 14.5h200q42 0 62 -52l368 -868v-422q0 -27 -11 -39t-38 -12h-178q-27 0 -39 12t-12 39v443l-389 847q-11 23 -1 37.5zM600 874l213 467q11 26 23 39t36 13h177q27 0 37 -13.5t-1 -38.5l-358 -763z" />
<glyph unicode="Z" horiz-adv-x="1017" d="M68 51v178h852q27 0 39 -11t12 -38v-129q0 -27 -12 -39t-39 -12h-799q-28 0 -40.5 12t-12.5 39zM102 291l482 811h317l-483 -811h-316zM102 1214v129q0 27 13 38.5t41 11.5h727q28 0 40.5 -11.5t12.5 -38.5v-180h-780q-28 0 -41 12t-13 39z" />
<glyph unicode="[" horiz-adv-x="806" d="M127 -141v1284h276v-1284h-276zM127 -203h518q27 0 39 -12t12 -39v-129q0 -27 -12 -38t-39 -11h-469q-26 0 -37.5 12.5t-11.5 40.5v176zM127 1202v176q0 54 49 54h469q27 0 39 -11.5t12 -38.5v-129q0 -27 -12 -39t-39 -12h-518z" />
<glyph unicode="\" horiz-adv-x="749" d="M29 1378q-12 54 39 54h188q25 0 38 -13t19 -41l408 -1628q12 -53 -39 -53h-186q-27 0 -40.5 12.5t-19.5 40.5z" />
<glyph unicode="]" horiz-adv-x="806" d="M111 -254q0 27 12.5 39t40.5 12h518v-176q0 -53 -51 -53h-467q-28 0 -40.5 11t-12.5 38v129zM111 1253v129q0 27 12.5 38.5t40.5 11.5h467q51 0 51 -54v-176h-518q-28 0 -40.5 12t-12.5 39zM403 -141v1282h279v-1282h-279z" />
<glyph unicode="^" horiz-adv-x="1181" d="M125 616l315 730q6 16 11 24.5t16 15.5t29 7h188l-291 -777q-9 -28 -20 -40.5t-37 -12.5h-162q-29 0 -44 14t-5 39zM625 1032l108 311l322 -727q10 -25 -5 -39t-44 -14h-162q-18 0 -29 7t-16.5 16.5t-12.5 29.5z" />
<glyph unicode="_" horiz-adv-x="933" d="M43 -199q0 26 12 36.5t39 10.5h746q28 0 39.5 -10.5t11.5 -36.5v-123q0 -28 -11.5 -39.5t-39.5 -11.5h-746q-27 0 -39 12t-12 39v123z" />
<glyph unicode="`" horiz-adv-x="643" d="M113.5 1435.5q6.5 14.5 33.5 14.5h179q48 0 71 -51l99 -201q11 -28 4 -38.5t-31 -10.5h-133q-42 0 -66 33l-147 217q-16 22 -9.5 36.5z" />
<glyph unicode="a" horiz-adv-x="1058" d="M94 240v92q0 110 81 184t226 74h217v-189h-167q-95 0 -95 -90v-32q0 -42 28.5 -62t74.5 -20q78 0 159 45v-197q-109 -61 -229 -61q-145 0 -220 73.5t-75 182.5zM121 715v26q0 295 416 295q217 0 314 -75.5t97 -219.5v-688q0 -28 -12 -40.5t-39 -12.5h-164q-27 0 -38 12.5 t-11 40.5v670q0 57 -35 86t-119 29q-86 0 -121.5 -25.5t-35.5 -81.5v-16q0 -28 -11.5 -39.5t-37.5 -11.5h-152q-28 0 -39.5 11.5t-11.5 39.5z" />
<glyph unicode="b" horiz-adv-x="1105" d="M121 53v1325q0 54 49 54h172q26 0 36.5 -13t10.5 -41v-1325q0 -28 -10.5 -40.5t-36.5 -12.5h-172q-26 0 -37.5 12.5t-11.5 40.5zM455 51v217q85 -51 170 -51q66 0 89 29t23 78v372q0 49 -23 78t-89 29q-85 0 -170 -51v217q117 67 254 67q150 0 224.5 -79t74.5 -220v-454 q0 -141 -74.5 -220t-224.5 -79q-137 0 -254 67z" />
<glyph unicode="c" horiz-adv-x="1007" d="M100 287v448q0 137 95 216t294 85v-215q-65 -4 -92.5 -29.5t-27.5 -76.5v-408q0 -52 27.5 -78t92.5 -30v-215q-389 11 -389 303zM555 -16v213q69 4 99 30.5t30 79.5v31q0 28 11.5 39.5t39.5 11.5h158q26 0 37.5 -11.5t11.5 -39.5v-51q0 -137 -94.5 -216.5t-292.5 -86.5z M555 823v213q198 -6 292.5 -85t94.5 -216v-35q0 -27 -11 -38t-38 -11h-158q-28 0 -39.5 11t-11.5 38v15q0 52 -30 78t-99 30z" />
<glyph unicode="d" horiz-adv-x="1105" d="M100 283v454q0 141 74.5 220t222.5 79q134 0 254 -69v-215q-96 51 -170 51q-66 0 -89 -29t-23 -78v-372q0 -49 23 -78t89 -29q85 0 170 51v-217q-113 -67 -254 -67q-148 0 -222.5 79t-74.5 220zM717 53v1325q0 28 12 41t39 13h170q26 0 36.5 -13t10.5 -41v-1325 q0 -28 -10.5 -40.5t-36.5 -12.5h-170q-27 0 -39 12.5t-12 40.5z" />
<glyph unicode="e" horiz-adv-x="1021" d="M100 287v448q0 143 102 222t320 79q412 0 412 -301v-237q0 -25 -11 -36t-36 -11h-459v180h254v92q0 113 -160 113t-160 -113v-426q0 -56 37.5 -83.5t122.5 -27.5t122.5 27.5t37.5 83.5v12q0 27 12 39t39 12h141q52 0 52 -51v-22q0 -146 -94.5 -224.5t-309.5 -78.5 q-422 0 -422 303z" />
<glyph unicode="f" horiz-adv-x="714" d="M39 854v102q0 26 11.5 36.5t39.5 13.5l103 10h8v127q0 141 109.5 221t328.5 80h18q28 0 40 -11t12 -38v-119q0 -28 -12 -40.5t-40 -12.5h-18q-170 0 -170 -111v-96h170q27 0 39 -10.5t12 -36.5v-115q0 -27 -12 -39t-39 -12h-549q-28 0 -39.5 11.5t-11.5 39.5zM201 53v688 h268v-688q0 -28 -11 -40.5t-38 -12.5h-170q-27 0 -38 12.5t-11 40.5z" />
<glyph unicode="g" horiz-adv-x="1105" d="M100 283v454q0 141 74.5 220t222.5 79q141 0 254 -67v-217q-96 51 -170 51q-66 0 -89 -29t-23 -78v-372q0 -49 23 -78t89 -29q82 0 170 49v-215q-117 -67 -254 -67q-148 0 -222.5 79t-74.5 220zM207 -244q0 54 51 54h289q87 0 128.5 26.5t41.5 83.5v1049q0 28 11.5 39.5 t39.5 11.5h168q26 0 37.5 -11.5t11.5 -39.5v-1080q0 -141 -109.5 -221t-328.5 -80h-289q-27 0 -39 11.5t-12 38.5v118z" />
<glyph unicode="h" horiz-adv-x="1116" d="M121 53v1325q0 54 49 54h172q26 0 36.5 -13t10.5 -41v-1325q0 -28 -10.5 -40.5t-36.5 -12.5h-172q-26 0 -37.5 12.5t-11.5 40.5zM455 754v217q120 65 256 65q138 0 217.5 -76t79.5 -198v-709q0 -28 -12 -40.5t-40 -12.5h-165q-54 0 -54 53v641q0 58 -24 83.5t-86 25.5 q-87 0 -172 -49z" />
<glyph unicode="i" d="M121 53v916q0 28 11.5 39.5t37.5 11.5h172q26 0 36.5 -11.5t10.5 -39.5v-916q0 -28 -10.5 -40.5t-36.5 -12.5h-172q-26 0 -37.5 12.5t-11.5 40.5zM121 1202v176q0 54 49 54h172q26 0 36.5 -13t10.5 -41v-176q0 -27 -10.5 -38t-36.5 -11h-172q-26 0 -37.5 11.5t-11.5 37.5 z" />
<glyph unicode="j" d="M-119 -244q0 28 12 41t39 13h19q87 0 128.5 26.5t41.5 83.5v1049q0 28 11 39.5t38 11.5h170q27 0 38 -11.5t11 -39.5v-1080q0 -141 -109.5 -221t-328.5 -80h-19q-28 0 -39.5 11t-11.5 39v118zM121 1202v176q0 54 49 54h172q26 0 36.5 -13t10.5 -41v-176q0 -27 -10.5 -38 t-36.5 -11h-172q-26 0 -37.5 11.5t-11.5 37.5z" />
<glyph unicode="k" horiz-adv-x="1013" d="M121 51v1329q0 52 49 52h172q26 0 36.5 -12.5t10.5 -39.5v-1329q0 -27 -10.5 -39t-36.5 -12h-172q-49 0 -49 51zM455 469v203l233 297q41 51 82 51h184q27 0 33 -16t-10 -35l-307 -389l336 -529q13 -19 6.5 -35t-31.5 -16h-186q-44 0 -74 51z" />
<glyph unicode="l" d="M121 53v1325q0 54 49 54h172q26 0 36.5 -13t10.5 -41v-1325q0 -28 -10.5 -40.5t-36.5 -12.5h-172q-26 0 -37.5 12.5t-11.5 40.5z" />
<glyph unicode="m" horiz-adv-x="1710" d="M121 53v918q0 26 11.5 37.5t37.5 11.5h170q27 0 38 -11t11 -38v-918q0 -28 -10.5 -40.5t-36.5 -12.5h-172q-26 0 -37.5 12.5t-11.5 40.5zM455 756v217q105 63 243 63q54 0 104 -15t94.5 -46t71.5 -86t27 -127v-709q0 -28 -12 -40.5t-39 -12.5h-166q-53 0 -53 53v641 q0 58 -24.5 83.5t-86.5 25.5q-84 0 -159 -47zM1016 942q123 94 287 94q138 0 217 -75.5t79 -198.5v-709q0 -28 -11.5 -40.5t-37.5 -12.5h-168q-27 0 -39 12.5t-12 40.5v641q0 58 -24 83.5t-86 25.5q-93 0 -164 -47v35q0 85 -41 151z" />
<glyph unicode="n" horiz-adv-x="1116" d="M121 53v918q0 26 11.5 37.5t37.5 11.5h170q27 0 38 -11t11 -38v-918q0 -28 -10.5 -40.5t-36.5 -12.5h-172q-26 0 -37.5 12.5t-11.5 40.5zM455 754v217q120 65 256 65q138 0 217.5 -76t79.5 -198v-709q0 -28 -12 -40.5t-40 -12.5h-165q-54 0 -54 53v641q0 58 -24 83.5 t-86 25.5q-87 0 -172 -49z" />
<glyph unicode="o" horiz-adv-x="1085" d="M100 287v448q0 135 103.5 215t306.5 86v-215q-141 -9 -141 -108v-404q0 -103 141 -112v-213q-204 6 -307 86t-103 217zM575 -16v213q142 9 142 112v404q0 99 -142 108v215q202 -6 306 -86.5t104 -214.5v-448q0 -137 -104 -217t-306 -86z" />
<glyph unicode="p" horiz-adv-x="1105" d="M121 -360v1329q0 28 11.5 39.5t37.5 11.5h170q27 0 38 -11.5t11 -39.5v-1329q0 -28 -10.5 -40t-36.5 -12h-172q-26 0 -37.5 12t-11.5 40zM455 49v217q88 -49 170 -49q66 0 89 29t23 78v372q0 49 -23 78t-89 29q-85 0 -170 -51v217q117 67 254 67q150 0 224.5 -79 t74.5 -220v-454q0 -141 -74.5 -220t-224.5 -79q-141 0 -254 65z" />
<glyph unicode="q" horiz-adv-x="1105" d="M100 283v454q0 141 74.5 220t222.5 79q141 0 254 -67v-217q-96 51 -170 51q-66 0 -89 -29t-23 -78v-372q0 -49 23 -78t89 -29q82 0 170 49v-215q-117 -67 -254 -67q-148 0 -222.5 79t-74.5 220zM717 -360v1329q0 28 11.5 39.5t39.5 11.5h168q26 0 37.5 -11.5t11.5 -39.5 v-1329q0 -28 -10.5 -40t-36.5 -12h-170q-28 0 -39.5 12t-11.5 40z" />
<glyph unicode="r" horiz-adv-x="759" d="M121 53v918q0 26 11.5 37.5t37.5 11.5h170q27 0 38 -11t11 -38v-918q0 -28 -10.5 -40.5t-36.5 -12.5h-172q-26 0 -37.5 12.5t-11.5 40.5zM457 729v229q106 78 227 78q28 0 39.5 -11.5t11.5 -37.5v-133q0 -26 -11.5 -38t-39.5 -13q-129 -10 -227 -74z" />
<glyph unicode="s" horiz-adv-x="966" d="M78 248v47q0 25 10.5 36t36.5 11h151q26 0 37 -11t11 -36v-35q0 -77 131 -84v-192q-99 4 -174 27.5t-118 61t-64 81.5t-21 94zM102 696v68q0 49 18.5 93t58 83.5t110.5 65t166 30.5v-190q-109 -10 -109 -82v-23q0 -49 64 -71l295 -105q196 -71 196 -213v-104 q0 -50 -21.5 -94t-65.5 -81.5t-119.5 -61t-174.5 -27.5v192q133 7 133 84v35q0 26 -21 43t-71 35l-297 108q-61 22 -111.5 83.5t-50.5 131.5zM520 846v190q98 -2 172.5 -27t115.5 -65t61 -85t20 -95v-39q0 -26 -10.5 -36.5t-38.5 -10.5h-152q-25 0 -35 10.5t-10 36.5v39 q0 75 -123 82z" />
<glyph unicode="t" horiz-adv-x="743" d="M31 854v102q0 26 11 36.5t38 13.5l94 10h8v196q0 28 11 40t38 12h170q27 0 38.5 -12t11.5 -40v-196h186q28 0 39.5 -10.5t11.5 -36.5v-115q0 -28 -11.5 -39.5t-39.5 -11.5h-557q-26 0 -37.5 11.5t-11.5 39.5zM182 303v438h269v-409q0 -57 38.5 -84t124.5 -27h45 q28 0 40 -11.5t12 -39.5v-119q0 -28 -12 -39.5t-40 -11.5h-86q-148 0 -235 35t-121.5 99t-34.5 169z" />
<glyph unicode="u" horiz-adv-x="1103" d="M111 258v711q0 28 11.5 39.5t37.5 11.5h168q28 0 39.5 -11.5t11.5 -39.5v-643q0 -58 24 -83.5t86 -25.5q76 0 160 45v-217q-105 -61 -243 -61q-137 0 -216 76t-79 198zM715 51v918q0 28 11.5 39.5t39.5 11.5h170q26 0 37.5 -11.5t11.5 -39.5v-918q0 -27 -12 -39t-39 -12 h-168q-28 0 -39.5 11.5t-11.5 39.5z" />
<glyph unicode="v" horiz-adv-x="970" d="M23 969q-9 25 5 38t42 13h176q26 0 37 -12t20 -39l303 -969h-225q-26 0 -34.5 9t-18.5 38zM524 487l164 482q9 27 20 39t37 12h156q29 0 43.5 -13t5.5 -38l-303 -875z" />
<glyph unicode="w" horiz-adv-x="1466" d="M23 969q-7 25 6.5 38t42.5 13h161q45 0 58 -51l254 -969h-221q-26 0 -37 10.5t-17 36.5zM487 477l134 492q13 51 59 51h162q26 0 38 -12.5t19 -38.5l240 -969h-207q-26 0 -36 10.5t-17 36.5l-119 485q-19 78 -19 109q-1 -2 -5 -20t-10 -44t-11 -45l-125 -436zM1079 514 l125 455q13 51 56 51h137q28 0 41 -13t6 -38l-260 -873z" />
<glyph unicode="x" horiz-adv-x="972" d="M16 15.5q-6 15.5 7 35.5l272 412l129 -191l-141 -221q-15 -24 -31 -37.5t-41 -13.5h-162q-27 0 -33 15.5zM28 1004.5q6 15.5 33 15.5h185q25 0 41.5 -12.5t34.5 -38.5l612 -918q13 -19 6 -35t-33 -16h-184q-39 0 -72 51l-614 918q-15 20 -9 35.5zM539 762l129 207 q32 51 73 51h164q26 0 32.5 -15.5t-7.5 -35.5l-262 -398z" />
<glyph unicode="y" horiz-adv-x="970" d="M23 969q-9 25 5 38t42 13h170q26 0 37 -12t20 -39l162 -504l-125 -393zM268 -360l420 1329q8 27 21 39t39 12h153q29 0 43.5 -13t5.5 -38l-452 -1329q-15 -52 -58 -52h-123q-29 0 -42.5 13.5t-6.5 38.5z" />
<glyph unicode="z" horiz-adv-x="915" d="M66 51v168h743q28 0 39.5 -11t11.5 -38v-119q0 -28 -11.5 -39.5t-39.5 -11.5h-692q-27 0 -39 12t-12 39zM98 850v121q0 27 12.5 38t39.5 11h622q28 0 39.5 -11t11.5 -38v-170h-673q-52 0 -52 49zM104 281l367 458h315l-368 -458h-314z" />
<glyph unicode="{" horiz-adv-x="921" d="M106 451v116q0 54 52 54h2q83 0 120 26.5t37 83.5v416q0 142 110.5 222.5t328.5 80.5h18q28 0 39.5 -11.5t11.5 -39.5v-119q0 -28 -11.5 -39.5t-39.5 -11.5h-18q-85 0 -123.5 -26.5t-38.5 -84.5v-416q0 -143 -125 -192q125 -52 125 -195v-430q0 -57 38 -83.5t124 -26.5 h18q28 0 39.5 -11.5t11.5 -39.5v-119q0 -28 -11.5 -39.5t-39.5 -11.5h-18q-218 0 -328.5 80.5t-110.5 222.5v432q0 57 -37 83.5t-120 26.5h-2q-28 0 -40 12t-12 40z" />
<glyph unicode="|" horiz-adv-x="561" d="M143 -379v1757q0 28 11.5 41t38.5 13h178q27 0 38 -12.5t11 -41.5v-1757q0 -28 -11 -40.5t-38 -12.5h-178q-27 0 -38.5 12.5t-11.5 40.5z" />
<glyph unicode="}" horiz-adv-x="921" d="M94 -276q0 27 12.5 39t40.5 12h19q86 0 124 26.5t38 83.5v430q0 142 125 195q-125 50 -125 192v416q0 58 -38.5 84.5t-123.5 26.5h-19q-28 0 -40.5 12t-12.5 39v119q0 27 12.5 39t40.5 12h19q219 0 328.5 -80t109.5 -223v-416q0 -57 37.5 -83.5t120.5 -26.5h2 q51 0 51 -54v-116q0 -52 -51 -52h-2q-83 0 -120.5 -26.5t-37.5 -83.5v-432q0 -143 -109.5 -223t-328.5 -80h-19q-28 0 -40.5 12t-12.5 39v119z" />
<glyph unicode="~" horiz-adv-x="1032" d="M123 471l8 98q7 91 57 136t115 45q55 0 111 -23l184 -84q60 -27 82 -27q20 0 27 14t14 50l2 10q4 26 16.5 35.5t38.5 9.5h88q27 0 36.5 -14.5t6.5 -44.5l-10 -84q-11 -97 -58.5 -145t-109.5 -48q-57 0 -125 29l-186 86q-6 3 -17 7.5t-16.5 7t-14.5 4.5t-18 2 q-16 0 -26 -10t-12.5 -20t-6.5 -34l-2 -12q-4 -27 -16.5 -36t-38.5 -9h-88q-47 0 -41 57z" />
<glyph unicode="&#xa1;" horiz-adv-x="567" d="M141 221l27 375q3 29 12.5 40t36.5 11h127q27 0 37 -11t12 -40l29 -375v-540q0 -28 -12 -41t-39 -13h-181q-27 0 -38 12.5t-11 41.5v540zM145 803v166q0 28 11 39.5t39 11.5h178q27 0 38 -11.5t11 -39.5v-166q0 -28 -11 -39.5t-38 -11.5h-178q-28 0 -39 11.5t-11 39.5z " />
<glyph unicode="&#xa2;" horiz-adv-x="1116" d="M137 471v451q0 236 271 286v131q0 29 11 41.5t38 12.5h69v-385q-65 -4 -92.5 -30t-27.5 -77v-407q0 -52 27.5 -78.5t92.5 -30.5v-385h-69q-27 0 -38 12.5t-11 40.5v129q-271 46 -271 289zM592 0v383q69 4 99 31t30 80v30q0 27 12 39t39 12h158q26 0 37.5 -11.5 t11.5 -39.5v-53q0 -231 -260 -287v-131q0 -28 -11 -40.5t-38 -12.5h-78zM592 1010v383h78q27 0 38 -12.5t11 -41.5v-133q132 -25 196 -99t64 -185v-35q0 -27 -11 -38t-38 -11h-158q-27 0 -39 11t-12 38v14q0 52 -30 78.5t-99 30.5z" />
<glyph unicode="&#xa3;" horiz-adv-x="1406" d="M137 51v121q0 27 12 38t39 11h115v293h277v-293h313q115 0 115 166v19q0 27 12 39t39 12h162q26 0 37.5 -11.5t11.5 -39.5v-19q0 -110 -21.5 -187t-63.5 -120t-95 -61.5t-125 -18.5h-777q-27 0 -39 12t-12 39zM137 625v123q0 49 51 49h115v282q0 68 23 124.5t73.5 104.5 t142.5 74.5t218 26.5t218 -27t143 -74.5t74.5 -104t23.5 -124.5v-69q0 -28 -11.5 -41t-38.5 -13h-163q-52 0 -52 54v20q0 150 -190 150q-96 0 -140 -36.5t-44 -113.5v-233h223q28 0 39.5 -11.5t11.5 -37.5v-123q0 -28 -11.5 -39t-39.5 -11h-615q-27 0 -39 11.5t-12 38.5z " />
<glyph unicode="&#xa4;" horiz-adv-x="1351" d="M137 518v72q0 26 11.5 37.5t39.5 11.5h62v111h-62q-28 0 -39.5 11t-11.5 38v71q0 28 11.5 39t39.5 11h62v155q0 52 13 97.5t45.5 88.5t82.5 74t128.5 51t178.5 23v-231q-170 -12 -170 -152v-106h203q28 0 39.5 -11t11.5 -39v-71q0 -27 -11.5 -38t-39.5 -11h-203v-111h203 q28 0 39.5 -11.5t11.5 -37.5v-72q0 -28 -11.5 -39.5t-39.5 -11.5h-203v-100q0 -142 170 -154v-229q-124 4 -214 32t-139.5 75.5t-72 103t-22.5 122.5v150h-62q-28 0 -39.5 11.5t-11.5 39.5zM764 -16v229q180 12 180 154v77q0 28 11.5 40t37.5 12h172q26 0 36.5 -12t10.5 -40 v-127q0 -67 -22.5 -122.5t-72.5 -103t-139.5 -75.5t-213.5 -32zM764 1178v231q99 -3 177.5 -23t128.5 -51t82.5 -74t46 -88.5t13.5 -97.5v-98q0 -28 -10.5 -39.5t-36.5 -11.5h-172q-26 0 -37.5 11.5t-11.5 39.5v49q0 70 -46 108.5t-134 43.5z" />
<glyph unicode="&#xa5;" horiz-adv-x="1345" d="M144 1378.5q10 14.5 38 14.5h201q24 0 37.5 -13t23.5 -39l369 -868v-422q0 -27 -11 -39t-38 -12h-178q-27 0 -39 12t-12 39v443l-39 81h-240q-51 0 -51 50v67q0 27 12 37t39 10h166l-45 99h-121q-51 0 -51 49v65q0 27 12 38t39 11h45l-156 340q-11 23 -1 37.5zM715 874 l213 467q11 26 23 39t36 13h176q27 0 37.5 -13.5t-0.5 -38.5l-160 -340h52q27 0 39 -11t12 -38v-65q0 -49 -51 -49h-127l-47 -99h174q27 0 39 -10t12 -37v-67q0 -50 -51 -50h-250z" />
<glyph unicode="&#xa6;" d="M121 264q0 28 11.5 40.5t37.5 12.5h172q26 0 36.5 -12.5t10.5 -40.5v-643q0 -28 -10.5 -40.5t-36.5 -12.5h-172q-26 0 -37.5 12.5t-11.5 40.5v643zM121 696v643q0 54 49 54h172q26 0 36.5 -13t10.5 -41v-643q0 -28 -10.5 -40.5t-36.5 -12.5h-172q-26 0 -37.5 12.5 t-11.5 40.5z" />
<glyph unicode="&#xa7;" horiz-adv-x="1130" d="M143 -102q0 28 11 38.5t39 10.5h149q27 0 38 -11t11 -38v-33q0 -51 31.5 -76t101.5 -29v-174q-381 11 -381 293v19zM143 979v125q0 134 98.5 217.5t299.5 87.5v-176q-70 -4 -101.5 -30t-31.5 -77v-131q0 -54 98 -84l258 -80q81 -25 137.5 -93.5t56.5 -162.5v-159 q0 -49 -51 -49h-149q-27 0 -38 11t-11 38v133q0 64 -78 88l-287 90q-86 27 -143.5 88t-57.5 164zM172 420v158q0 27 11.5 38t39.5 11h148q28 0 39.5 -11t11.5 -38v-134q0 -33 22.5 -55.5t55.5 -32.5l286 -90q86 -27 143.5 -88t57.5 -164v-123q0 -135 -98 -218t-299 -87v174 q69 6 100 31.5t31 75.5v133q0 52 -98 82l-256 80q-81 27 -138 95.5t-57 162.5zM606 1233v176q195 -7 288 -83t93 -210v-18q0 -28 -11.5 -39.5t-37.5 -11.5h-150q-27 0 -38 11.5t-11 39.5v30q0 51 -32 75.5t-101 29.5z" />
<glyph unicode="&#xa8;" horiz-adv-x="780" d="M145 1204v191q0 51 52 51h100q26 0 36.5 -11.5t10.5 -39.5v-191q0 -28 -10.5 -39.5t-36.5 -11.5h-100q-52 0 -52 51zM432 1204v191q0 28 11.5 39.5t39.5 11.5h101q26 0 36.5 -11.5t10.5 -39.5v-191q0 -28 -10.5 -39.5t-36.5 -11.5h-101q-28 0 -39.5 11.5t-11.5 39.5z" />
<glyph unicode="&#xa9;" horiz-adv-x="1593" d="M143 461v473q0 53 5.5 96.5t22 93t44 88.5t75 76t111 62t156 41t207.5 18v-166q-221 -4 -323.5 -76.5t-102.5 -195.5v-547q0 -263 426 -274v-166q-115 2 -207.5 18t-156 41.5t-111 62.5t-75 76t-44 89t-22 93.5t-5.5 96.5zM453 557v277q0 136 71 206.5t240 77.5v-186 q-72 -11 -72 -105v-262q0 -47 16.5 -73t55.5 -33v-187q-170 6 -240.5 76t-70.5 209zM829 -16v166q428 11 428 272v551q0 122 -103 194t-325 76v166q115 -2 207.5 -18t156.5 -41t111.5 -62t75.5 -76t44.5 -88.5t22 -93t5.5 -96.5v-473q0 -53 -5.5 -96.5t-22 -93.5t-44.5 -89 t-75.5 -76t-111.5 -62.5t-156.5 -41.5t-207.5 -18zM829 272v187q41 6 60.5 31.5t19.5 74.5v27q0 28 11.5 39.5t37.5 11.5h138q28 0 39.5 -11.5t11.5 -39.5v-35q0 -138 -73 -208.5t-245 -76.5zM829 936v182q172 -6 245 -76.5t73 -207.5v-19q0 -27 -11.5 -38t-39.5 -11h-138 q-27 0 -38 11t-11 38v12q0 50 -19 76t-61 33z" />
<glyph unicode="&#xaa;" horiz-adv-x="735" d="M96 932v51q0 66 54 112t147 46h86v-121h-47q-20 0 -30.5 -12t-10.5 -29v-23q0 -41 49 -41q13 0 39 13v-129q-49 -27 -107 -27q-91 0 -135.5 46t-44.5 114zM115 1217v12q0 180 264 180q260 0 260 -188v-400q0 -21 -8 -30t-29 -9h-123q-23 0 -31 8.5t-8 30.5v402 q0 24 -15.5 34.5t-51.5 10.5q-68 0 -68 -41v-10q0 -37 -35 -37h-116q-22 0 -30.5 8.5t-8.5 28.5z" />
<glyph unicode="&#xab;" horiz-adv-x="1257" d="M139 360v226q0 22 12 36.5t35 30.5l387 275q20 13 36 2t16 -37v-170q0 -40 -52 -72zM193 317l204 136l176 -101q25 -15 38.5 -30t13.5 -39v-170q0 -27 -16 -37t-36 2zM633 360v226q0 22 12 36.5t35 30.5l387 275q20 13 35.5 2.5t15.5 -37.5v-170q0 -40 -51 -72zM686 317 l205 136l176 -101q51 -30 51 -69v-170q0 -27 -15.5 -37t-35.5 2z" />
<glyph unicode="&#xac;" horiz-adv-x="819" d="M152 655q0 107 74.5 182.5t181.5 75.5t182.5 -75.5t75.5 -182.5t-75.5 -181.5t-182.5 -74.5t-181.5 74.5t-74.5 181.5z" />
<glyph unicode="&#xad;" horiz-adv-x="892" d="M121 530v121q0 27 12 38t39 11h549q27 0 39 -11t12 -38v-121q0 -27 -12 -39t-39 -12h-549q-27 0 -39 12t-12 39z" />
<glyph unicode="&#xae;" horiz-adv-x="1323" d="M143 692v379q0 48 8.5 88t39 87.5t81 80.5t142.5 56.5t217 25.5v-156q-172 -4 -242 -48t-70 -118v-411q0 -160 312 -168v-154q-90 2 -163.5 14.5t-123.5 31.5t-87 47t-58.5 56t-34.5 63t-17 64t-4 62zM432 639v485q0 35 35 35h131v-520q0 -37 -35 -37h-96q-35 0 -35 37z M664 782v131h26q27 0 43.5 12t16.5 33v25q0 47 -60 47h-26v129h36q220 0 220 -170v-35q0 -99 -78 -141l69 -174q10 -37 -34 -37h-91q-14 0 -19.5 7.5t-12.5 29.5l-60 143h-30zM696 354v154q170 4 239 48t69 118v413q0 48 -25 81.5t-95.5 57t-187.5 27.5v156 q123 -3 215 -26.5t142.5 -56.5t81 -80.5t39 -87.5t8.5 -87v-379q0 -47 -8.5 -87.5t-39 -88t-81 -80.5t-142.5 -56.5t-215 -25.5z" />
<glyph unicode="&#xaf;" horiz-adv-x="831" d="M127 1221v104q0 27 12.5 38t40.5 11h471q28 0 39.5 -11t11.5 -38v-104q0 -27 -12 -38.5t-39 -11.5h-471q-53 0 -53 50z" />
<glyph unicode="&#xb0;" horiz-adv-x="890" d="M111 985v195q0 106 70.5 164.5t236.5 62.5v-174q-80 -6 -80 -62v-176q0 -54 80 -63v-174q-167 4 -237 61.5t-70 165.5zM475 758v174q78 10 78 63v176q0 52 -78 62v174q164 -4 234.5 -62.5t70.5 -164.5v-195q0 -107 -70.5 -165t-234.5 -62z" />
<glyph unicode="&#xb1;" horiz-adv-x="1146" d="M121 143v121q0 27 12 38t39 11h801q28 0 40.5 -11t12.5 -38v-121q0 -27 -12.5 -39t-40.5 -12h-801q-27 0 -39 12t-12 39zM121 721v123q0 26 12 36.5t39 10.5h225v-219h-225q-27 0 -39 11t-12 38zM463 479v604q0 28 11 40t38 12h119q28 0 39.5 -12t11.5 -40v-604 q0 -28 -11.5 -39.5t-39.5 -11.5h-119q-27 0 -38 11.5t-11 39.5zM748 672v219h225q28 0 40.5 -10.5t12.5 -36.5v-123q0 -27 -12.5 -38t-40.5 -11h-225z" />
<glyph unicode="&#xb2;" horiz-adv-x="794" d="M94 1124v74q0 85 64 144.5t204 66.5v-166q-65 -16 -65 -76v-43q0 -22 -7.5 -30.5t-27.5 -8.5h-131q-20 0 -28.5 8.5t-8.5 30.5zM115 600v129h549q38 0 38 -35v-94q0 -37 -38 -37h-512q-20 0 -28.5 8.5t-8.5 28.5zM115 784v39q0 43 17.5 66t55.5 39l263 116q38 17 38 66 v57q0 60 -67 76v166q138 -7 205 -67.5t67 -143.5v-78q0 -151 -119 -205l-194 -88q-25 -8 -25 -22l-2 -21h-239z" />
<glyph unicode="&#xb3;" horiz-adv-x="792" d="M94 764v41q0 19 8 27t29 8h129q39 0 39 -35v-10q0 -67 68 -76v-164q-144 6 -208.5 65t-64.5 144zM98 1161v39q0 86 61.5 145t207.5 66v-164q-64 -12 -64 -76v-10q0 -37 -37 -37h-131q-21 0 -29 8.5t-8 28.5zM270 946v88q0 21 9 29t30 8h72q98 0 98 78v22q0 60 -55 72v168 q142 -7 202 -64t60 -143v-86q0 -89 -86 -121q98 -43 98 -141v-96q0 -85 -64.5 -143t-209.5 -62v164q33 5 51.5 24.5t18.5 51.5v36q0 41 -27.5 60.5t-73.5 19.5h-84q-39 0 -39 35z" />
<glyph unicode="&#xb4;" horiz-adv-x="643" d="M141 1159.5q-7 10.5 4 38.5l99 201q23 51 71 51h179q27 0 33.5 -14.5t-9.5 -36.5l-147 -217q-24 -33 -66 -33h-133q-24 0 -31 10.5z" />
<glyph unicode="&#xb5;" horiz-adv-x="1103" d="M111 -360v1329q0 28 11.5 39.5t37.5 11.5h168q28 0 39.5 -11.5t11.5 -39.5v-643q0 -58 24 -83.5t86 -25.5q76 0 160 45v-217q-102 -61 -233 -61q-38 0 -51 20l14 -364q2 -28 -9.5 -40t-39.5 -12h-170q-26 0 -37.5 12t-11.5 40zM715 51v918q0 28 11.5 39.5t39.5 11.5h170 q26 0 37.5 -11.5t11.5 -39.5v-918q0 -27 -12 -39t-39 -12h-168q-28 0 -39.5 11.5t-11.5 39.5z" />
<glyph unicode="&#xb6;" horiz-adv-x="1419" d="M143 846v278q0 62 18.5 108.5t62 84t123 57t192.5 19.5h276q27 0 38 -12.5t11 -39.5v-1701q0 -28 -11 -40t-38 -12h-178q-27 0 -38 12t-11 40v938h-49q-113 0 -192.5 19.5t-123 56.5t-62 83.5t-18.5 108.5zM1001 -360v1699q0 28 11.5 41t38.5 13h178q27 0 38 -12.5 t11 -41.5v-1699q0 -28 -11 -40t-38 -12h-178q-27 0 -38.5 12t-11.5 40z" />
<glyph unicode="&#xb7;" d="M119 483v166q0 28 11.5 39.5t39.5 11.5h174q27 0 38 -11.5t11 -39.5v-166q0 -28 -11 -39.5t-38 -11.5h-174q-28 0 -39.5 11.5t-11.5 39.5z" />
<glyph unicode="&#xb8;" horiz-adv-x="534" d="M35 -340q0 27 11.5 38t39.5 11h201q39 0 39 31q0 33 -39 33h-154q-43 0 -54 13.5t-9 47.5l8 74h252q83 0 131.5 -41.5t48.5 -126.5q0 -86 -48.5 -129t-131.5 -43h-244q-28 0 -39.5 11.5t-11.5 39.5v41z" />
<glyph unicode="&#xb9;" horiz-adv-x="765" d="M94 598v94q0 21 8.5 28t30.5 7h504q21 0 28 -7t7 -28v-94q0 -21 -7.5 -29t-27.5 -8h-504q-22 0 -30.5 8.5t-8.5 28.5zM94 1225v94q0 18 9 26t30 11l324 51h16t13.5 -9t5.5 -26v-590h-209v432l-150 -20q-21 -3 -30 3.5t-9 27.5z" />
<glyph unicode="&#xba;" horiz-adv-x="761" d="M94 967v247q0 86 66 137.5t192 57.5v-160q-53 -6 -53 -47v-219q0 -46 53 -55v-154q-125 4 -191.5 55.5t-66.5 137.5zM410 774v156q51 10 51 53v219q0 41 -51 47v160q123 -6 189.5 -57.5t66.5 -137.5v-247q0 -86 -66.5 -137.5t-189.5 -55.5z" />
<glyph unicode="&#xbb;" horiz-adv-x="1257" d="M139 125v170q0 40 51 70l177 100l204 -135l-381 -240q-20 -12 -35.5 -2t-15.5 37zM139 735v170q0 27 15.5 37.5t35.5 -2.5l388 -274q47 -33 47 -68v-225l-435 291q-25 16 -38 31.5t-13 39.5zM633 125v170q0 40 51 70l176 100l205 -135l-381 -240q-20 -12 -35.5 -2 t-15.5 37zM633 735v170q0 27 15.5 37.5t35.5 -2.5l387 -274q47 -33 47 -68v-225l-434 291q-25 16 -38 31.5t-13 39.5z" />
<glyph unicode="&#xbc;" horiz-adv-x="1832" d="M94 598v94q0 21 8.5 28t30.5 7h504q21 0 28 -7t7 -28v-94q0 -21 -7.5 -29t-27.5 -8h-504q-22 0 -30.5 8.5t-8.5 28.5zM94 1225v94q0 18 9 26t30 11l324 51h16t13.5 -9t5.5 -26v-590h-209v432l-150 -20q-21 -3 -30 3.5t-9 27.5zM649 -63l367 1519q5 20 14.5 28.5t30.5 8.5 h141q39 0 29 -37l-369 -1519q-3 -20 -11.5 -28.5t-29.5 -8.5h-143q-38 0 -29 37zM1128 248v76q0 9 13 59l116 416q10 37 46 37h137q20 0 25.5 -9t2.5 -28l-120 -424h122v-164h-301q-41 0 -41 37zM1530 37v762q0 37 37 37h135q21 0 29 -8.5t8 -28.5v-762q0 -20 -8 -28.5 t-29 -8.5h-135q-37 0 -37 37z" />
<glyph unicode="&#xbd;" horiz-adv-x="1841" d="M94 598v94q0 21 8.5 28t30.5 7h504q21 0 28 -7t7 -28v-94q0 -21 -7.5 -29t-27.5 -8h-504q-22 0 -30.5 8.5t-8.5 28.5zM94 1225v94q0 18 9 26t30 11l324 51h16t13.5 -9t5.5 -26v-590h-209v432l-150 -20q-21 -3 -30 3.5t-9 27.5zM631 -63l368 1519q3 20 12.5 28.5t30.5 8.5 h142q38 0 28 -37l-368 -1519q-3 -19 -12 -28t-29 -9h-144q-37 0 -28 37zM1139 561v74q0 84 64.5 144t203.5 67v-166q-66 -16 -66 -76v-43q0 -22 -7 -30.5t-27 -8.5h-131q-37 0 -37 39zM1159 37v129h551q19 0 28 -7.5t9 -27.5v-94q0 -37 -37 -37h-514q-20 0 -28.5 8.5 t-8.5 28.5zM1159 221v39q0 43 18 66t56 39l262 116q39 17 39 66v57q0 60 -68 76v166q139 -7 206 -67t67 -144v-78q0 -151 -119 -205l-195 -88q-22 -7 -22 -22l-4 -21h-240z" />
<glyph unicode="&#xbe;" horiz-adv-x="1855" d="M94 764v39q0 21 8 29t29 8h129q39 0 39 -37v-10q0 -64 68 -76v-162q-144 6 -208.5 65t-64.5 144zM98 1159v41q0 86 61.5 144t207.5 65v-164q-64 -12 -64 -76v-10q0 -35 -37 -35h-131q-21 0 -29 8.5t-8 26.5zM270 944v90q0 20 9 27.5t30 7.5h72q45 0 71.5 20t26.5 60v20 q0 59 -55 74v166q142 -7 202 -63.5t60 -141.5v-86q0 -93 -86 -121q98 -46 98 -143v-96q0 -85 -64.5 -142.5t-209.5 -60.5v162q70 13 70 76v38q0 39 -28 58.5t-73 19.5h-84q-39 0 -39 35zM672 -63l368 1519q3 20 12.5 28.5t30.5 8.5h142q38 0 28 -37l-368 -1519 q-3 -20 -11.5 -28.5t-29.5 -8.5h-144q-34 0 -28 37zM1151 248v76q0 13 12 59l117 416q6 37 45 37h137q37 0 27 -37l-119 -424h123v-164h-301q-41 0 -41 37zM1552 37v762q0 37 35 37h137q21 0 29 -8.5t8 -28.5v-762q0 -20 -8 -28.5t-29 -8.5h-137q-35 0 -35 37z" />
<glyph unicode="&#xbf;" horiz-adv-x="1157" d="M104 41q0 233 191 317l117 54q47 22 66.5 45t19.5 69v72q0 28 10.5 38.5t36.5 10.5h178q28 0 39.5 -11t11.5 -38v-141q0 -41 -10.5 -72t-31.5 -52.5t-39.5 -34t-47.5 -26.5l-188 -96q-78 -40 -78 -125v-61q0 -70 43 -109t127 -43v-227q-120 4 -209 33t-139 77 t-73.5 103.5t-23.5 120.5v96zM498 803v166q0 28 10.5 39.5t36.5 11.5h178q28 0 39.5 -11.5t11.5 -39.5v-166q0 -28 -11.5 -39.5t-39.5 -11.5h-178q-26 0 -36.5 11.5t-10.5 39.5zM614 -162q84 4 127 43t43 109v80q0 28 10 39.5t37 11.5h170q28 0 40 -11.5t12 -39.5v-125 q0 -65 -22.5 -120.5t-71.5 -103.5t-137 -77t-208 -33v227z" />
<glyph unicode="&#xc0;" horiz-adv-x="1134" d="M31 51l383 1290q15 52 63 52h180q49 0 64 -52l383 -1290q15 -51 -39 -51h-184q-48 0 -60 51l-73 250h-312l62 219h190l-67 228q-11 46 -26 139.5t-25 164.5l-9 70q0 -2 -4 -31t-10 -73t-13.5 -93t-17 -97t-18.5 -78l-201 -699q-8 -27 -21.5 -39t-39.5 -12h-168 q-52 0 -37 51zM262 1783q7 15 35 15h178q47 0 70 -51l98 -201q22 -51 -25 -51h-133q-41 0 -67 35l-148 215q-15 23 -8 38z" />
<glyph unicode="&#xc1;" horiz-adv-x="1134" d="M31 51l383 1290q15 52 63 52h180q49 0 64 -52l383 -1290q15 -51 -39 -51h-184q-48 0 -60 51l-73 250h-312l62 219h190l-67 228q-11 46 -26 139.5t-25 164.5l-9 70q0 -2 -4 -31t-10 -73t-13.5 -93t-17 -97t-18.5 -78l-201 -699q-8 -27 -21.5 -39t-39.5 -12h-168 q-52 0 -37 51zM470 1507.5q-7 10.5 3 38.5l100 201q23 51 70 51h178q27 0 34.5 -14.5t-7.5 -36.5l-150 -217q-19 -33 -65 -33h-131q-25 0 -32 10.5z" />
<glyph unicode="&#xc2;" horiz-adv-x="1134" d="M31 51l383 1290q15 52 63 52h180q49 0 64 -52l383 -1290q15 -51 -39 -51h-184q-48 0 -60 51l-73 250h-312l62 219h190l-67 228q-11 46 -26 139.5t-25 164.5l-9 70q0 -2 -4 -31t-10 -73t-13.5 -93t-17 -97t-18.5 -78l-201 -699q-8 -27 -21.5 -39t-39.5 -12h-168 q-52 0 -37 51zM281.5 1510.5q-7.5 13.5 7.5 35.5l149 201q35 51 80 51h98q40 0 80 -51l150 -201q15 -22 8 -35.5t-35 -13.5h-131q-48 0 -70 49l-51 92l-51 -92q-20 -49 -72 -49h-129q-26 0 -33.5 13.5z" />
<glyph unicode="&#xc3;" horiz-adv-x="1134" d="M31 51l383 1290q15 52 63 52h180q49 0 64 -52l383 -1290q15 -51 -39 -51h-184q-48 0 -60 51l-73 250h-312l62 219h190l-67 228q-14 45 -29 138.5t-23 164.5l-8 71q0 -2 -4 -31t-10 -73t-13.5 -93t-17 -97t-18.5 -78l-201 -699q-8 -27 -21.5 -39t-39.5 -12h-168 q-52 0 -37 51zM217 1563l8 84q7 75 58 117t123 42q68 0 118 -26l88 -43q64 -31 76 -31q20 0 28.5 11t10.5 38l2 12q4 26 16.5 35.5t38.5 9.5h88q46 0 43 -59l-6 -80q-7 -78 -54.5 -119t-115.5 -41q-73 0 -131 27l-88 39q-8 4 -22 10.5t-22 10.5t-17.5 7t-16.5 3 q-19 0 -27.5 -11.5t-11.5 -39.5v-11q-4 -27 -16 -36t-39 -9h-88q-46 0 -43 60z" />
<glyph unicode="&#xc4;" horiz-adv-x="1134" d="M31 51l383 1290q15 52 63 52h180q49 0 64 -52l383 -1290q15 -51 -39 -51h-184q-48 0 -60 51l-73 250h-312l62 219h190l-67 228q-11 46 -26 139.5t-25 164.5l-9 70q0 -2 -4 -31t-10 -73t-13.5 -93t-17 -97t-18.5 -78l-201 -699q-8 -27 -21.5 -39t-39.5 -12h-168 q-52 0 -37 51zM326 1550v191q0 28 11.5 40.5t37.5 12.5h100q27 0 37 -12t10 -41v-191q0 -28 -10 -39.5t-37 -11.5h-100q-26 0 -37.5 11.5t-11.5 39.5zM612 1550v191q0 28 11.5 40.5t38.5 12.5h100q26 0 36.5 -12.5t10.5 -40.5v-191q0 -28 -10.5 -39.5t-36.5 -11.5h-100 q-28 0 -39 11.5t-11 39.5z" />
<glyph unicode="&#xc5;" horiz-adv-x="1134" d="M31 51l383 1290q15 52 63 52h180q49 0 64 -52l383 -1290q15 -51 -39 -51h-184q-48 0 -60 51l-73 250h-312l62 219h190l-67 228q-11 46 -26 139.5t-25 164.5l-9 70q0 -2 -4 -31t-10 -73t-13.5 -93t-17 -97t-18.5 -78l-201 -699q-8 -27 -21.5 -39t-39.5 -12h-168 q-52 0 -37 51zM338 1622v59q0 62 49.5 107.5t147.5 52.5v-119q-50 -12 -50 -57v-25q0 -49 50 -61v-117q-99 7 -148 51.5t-49 108.5zM600 1462v117q49 13 49 61v25q0 44 -49 57v119q96 -7 146.5 -53t50.5 -107v-59q0 -63 -50.5 -108t-146.5 -52z" />
<glyph unicode="&#xc6;" horiz-adv-x="1710" d="M32.5 14q-11.5 14 2.5 37l768 1290q29 52 71 52h207v-1393h-211q-27 0 -39 12t-12 39v250h-305l129 219h176v432q-63 -119 -71 -133l-447 -768q-1 -1 -5 -7.5t-5 -7.5t-4.5 -6.5t-5 -7t-5.5 -6t-6 -6t-6 -4t-7.5 -3.5t-7.5 -2t-9 -1h-168q-28 0 -39.5 14zM1147 0v223h430 q27 0 39 -10.5t12 -36.5v-125q0 -27 -12 -39t-39 -12h-430zM1147 612v217h373q28 0 40.5 -11t12.5 -38v-116q0 -28 -12.5 -40t-40.5 -12h-373zM1147 1169v224h407q28 0 40 -11.5t12 -38.5v-124q0 -27 -12 -38.5t-40 -11.5h-407z" />
<glyph unicode="&#xc7;" horiz-adv-x="1165" d="M121 317v758q0 52 13 97.5t45.5 88.5t82.5 74t128.5 51t178.5 23v-231q-170 -12 -170 -152v-659q0 -142 170 -154v-229q-124 4 -214 32t-139.5 75.5t-72 103t-22.5 122.5zM371 -340q0 27 11.5 38t39.5 11h201q39 0 39 31q0 33 -39 33h-154q-43 0 -54 13.5t-9 47.5l8 74 h252q83 0 131.5 -41.5t48.5 -126.5q0 -86 -48.5 -129t-131.5 -43h-244q-28 0 -39.5 11.5t-11.5 39.5v41zM635 -16v229q180 12 180 154v77q0 28 11.5 40t37.5 12h172q26 0 36.5 -12t10.5 -40v-127q0 -67 -22.5 -122.5t-72.5 -103t-139.5 -75.5t-213.5 -32zM635 1178v231 q99 -3 177.5 -23t128.5 -51t82.5 -74t46 -88.5t13.5 -97.5v-98q0 -28 -10.5 -39.5t-36.5 -11.5h-172q-26 0 -37.5 11.5t-11.5 39.5v49q0 70 -46 108.5t-134 43.5z" />
<glyph unicode="&#xc8;" horiz-adv-x="1048" d="M143 53v1286q0 28 11.5 41t38.5 13h227v-1393h-227q-27 0 -38.5 12.5t-11.5 40.5zM264 1783q7 15 35 15h178q47 0 70 -51l98 -201q22 -51 -24 -51h-134q-41 0 -67 35l-148 215q-15 23 -8 38zM485 0v229h428q28 0 40 -11t12 -38v-129q0 -28 -12 -39.5t-40 -11.5h-428z M485 610v221h373q28 0 40.5 -11t12.5 -38v-123q0 -26 -12.5 -37.5t-40.5 -11.5h-373zM485 1163v230h408q27 0 39 -11.5t12 -38.5v-129q0 -27 -12 -39t-39 -12h-408z" />
<glyph unicode="&#xc9;" horiz-adv-x="1048" d="M143 53v1286q0 28 11.5 41t38.5 13h227v-1393h-227q-27 0 -38.5 12.5t-11.5 40.5zM417 1507.5q-7 10.5 3 38.5l100 201q23 51 70 51h178q27 0 34.5 -14.5t-7.5 -36.5l-150 -217q-19 -33 -65 -33h-131q-25 0 -32 10.5zM485 0v229h428q28 0 40 -11t12 -38v-129 q0 -28 -12 -39.5t-40 -11.5h-428zM485 610v221h373q28 0 40.5 -11t12.5 -38v-123q0 -26 -12.5 -37.5t-40.5 -11.5h-373zM485 1163v230h408q27 0 39 -11.5t12 -38.5v-129q0 -27 -12 -39t-39 -12h-408z" />
<glyph unicode="&#xca;" horiz-adv-x="1048" d="M143 53v1286q0 28 11.5 41t38.5 13h227v-1393h-227q-27 0 -38.5 12.5t-11.5 40.5zM238.5 1510.5q-7.5 13.5 7.5 35.5l149 201q35 51 80 51h98q40 0 80 -51l150 -201q15 -22 8 -35.5t-35 -13.5h-131q-48 0 -70 49l-51 92l-51 -92q-20 -49 -72 -49h-129q-26 0 -33.5 13.5z M485 0v229h428q28 0 40 -11t12 -38v-129q0 -28 -12 -39.5t-40 -11.5h-428zM485 610v221h373q28 0 40.5 -11t12.5 -38v-123q0 -26 -12.5 -37.5t-40.5 -11.5h-373zM485 1163v230h408q27 0 39 -11.5t12 -38.5v-129q0 -27 -12 -39t-39 -12h-408z" />
<glyph unicode="&#xcb;" horiz-adv-x="1048" d="M143 53v1286q0 28 11.5 41t38.5 13h227v-1393h-227q-27 0 -38.5 12.5t-11.5 40.5zM297 1550v191q0 28 11.5 40.5t37.5 12.5h100q27 0 37.5 -12t10.5 -41v-191q0 -28 -10.5 -39.5t-37.5 -11.5h-100q-26 0 -37.5 11.5t-11.5 39.5zM485 0v229h428q28 0 40 -11t12 -38v-129 q0 -28 -12 -39.5t-40 -11.5h-428zM485 610v221h373q28 0 40.5 -11t12.5 -38v-123q0 -26 -12.5 -37.5t-40.5 -11.5h-373zM485 1163v230h408q27 0 39 -11.5t12 -38.5v-129q0 -27 -12 -39t-39 -12h-408zM584 1550v191q0 28 11 40.5t38 12.5h100q26 0 36.5 -12.5t10.5 -40.5 v-191q0 -28 -10.5 -39.5t-36.5 -11.5h-100q-27 0 -38 11.5t-11 39.5z" />
<glyph unicode="&#xcc;" horiz-adv-x="561" d="M-10 1783q7 15 35 15h178q46 0 69 -51l99 -201q22 -51 -25 -51h-133q-42 0 -68 35l-147 215q-15 23 -8 38zM143 53v1286q0 28 11.5 41t38.5 13h178q27 0 38 -12.5t11 -41.5v-1286q0 -28 -11 -40.5t-38 -12.5h-178q-27 0 -38.5 12.5t-11.5 40.5z" />
<glyph unicode="&#xcd;" horiz-adv-x="561" d="M143 53v1286q0 28 11.5 41t38.5 13h178q27 0 38 -12.5t11 -41.5v-1286q0 -28 -11 -40.5t-38 -12.5h-178q-27 0 -38.5 12.5t-11.5 40.5zM173 1507.5q-7 10.5 3 38.5l100 201q23 51 70 51h178q27 0 34.5 -14.5t-7.5 -36.5l-150 -217q-19 -33 -65 -33h-131q-25 0 -32 10.5z " />
<glyph unicode="&#xce;" horiz-adv-x="561" d="M-5 1510.5q-8 13.5 7 35.5l150 201q35 51 79 51h99q40 0 80 -51l149 -201q15 -22 8 -35.5t-35 -13.5h-131q-47 0 -69 49l-51 92l-52 -92q-20 -49 -71 -49h-129q-26 0 -34 13.5zM143 53v1286q0 28 11.5 41t38.5 13h178q27 0 38 -12.5t11 -41.5v-1286q0 -28 -11 -40.5 t-38 -12.5h-178q-27 0 -38.5 12.5t-11.5 40.5z" />
<glyph unicode="&#xcf;" horiz-adv-x="561" d="M39 1550v191q0 28 11.5 40.5t37.5 12.5h100q27 0 37.5 -12t10.5 -41v-191q0 -28 -10.5 -39.5t-37.5 -11.5h-100q-26 0 -37.5 11.5t-11.5 39.5zM143 53v1286q0 28 11.5 41t38.5 13h178q27 0 38 -12.5t11 -41.5v-1286q0 -28 -11 -40.5t-38 -12.5h-178q-27 0 -38.5 12.5 t-11.5 40.5zM326 1550v191q0 28 11 40.5t38 12.5h100q26 0 36.5 -12.5t10.5 -40.5v-191q0 -28 -10.5 -39.5t-36.5 -11.5h-100q-27 0 -38 11.5t-11 39.5z" />
<glyph unicode="&#xd0;" horiz-adv-x="1259" d="M6 649v105q0 27 11.5 37t39.5 10h86v538q0 28 11.5 41t38.5 13h227v-592h184q28 0 39.5 -10t11.5 -37v-105q0 -27 -11.5 -38t-39.5 -11h-184v-600h-234q-24 0 -33.5 13t-9.5 40v547h-86q-28 0 -39.5 11t-11.5 38zM485 0v229h154q106 0 164.5 39.5t58.5 114.5v627 q0 75 -58.5 114t-164.5 39h-154v230h154q134 0 234 -27.5t156 -75.5t83 -105.5t27 -125.5v-725q0 -68 -27 -125.5t-83 -105.5t-156 -75.5t-234 -27.5h-154z" />
<glyph unicode="&#xd1;" horiz-adv-x="1280" d="M143 51v1290q0 27 11.5 39.5t38.5 12.5h210v-1342q0 -27 -11 -39t-38 -12h-161q-27 0 -38.5 12t-11.5 39zM291 1563l8 84q7 75 57.5 117t122.5 42q69 0 119 -26l88 -43q64 -31 76 -31q20 0 28.5 11t10.5 38l2 12q4 26 16.5 35.5t38.5 9.5h88q46 0 43 -59l-6 -80 q-7 -78 -54.5 -119t-115.5 -41q-73 0 -131 27l-88 39q-8 4 -22 10.5t-22 10.5t-17.5 7t-16.5 3q-19 0 -27.5 -11.5t-11.5 -39.5v-11q-4 -27 -16 -36t-39 -9h-88q-46 0 -43 60zM469 741v547l342 -633v-551zM877 0v1341q0 52 51 52h162q27 0 37 -12.5t10 -39.5v-1290 q0 -27 -10 -39t-37 -12h-213z" />
<glyph unicode="&#xd2;" horiz-adv-x="1239" d="M121 317v758q0 52 15 98t49.5 88.5t87 73.5t132.5 51t181 23v-231q-90 -5 -138.5 -44t-48.5 -108v-659q0 -70 48.5 -109t138.5 -45v-229q-125 4 -218 32.5t-145 75.5t-77 103t-25 122zM328 1783q7 15 34 15h179q46 0 69 -51l99 -201q22 -51 -25 -51h-133q-42 0 -68 35 l-147 215q-15 23 -8 38zM651 -16v229q89 6 139 45.5t50 108.5v659q0 68 -50 107.5t-139 44.5v231q124 -4 217 -32.5t145.5 -76.5t77.5 -104t25 -121v-758q0 -66 -25 -122t-77.5 -103t-145.5 -75.5t-217 -32.5z" />
<glyph unicode="&#xd3;" horiz-adv-x="1239" d="M121 317v758q0 52 15 98t49.5 88.5t87 73.5t132.5 51t181 23v-231q-90 -5 -138.5 -44t-48.5 -108v-659q0 -70 48.5 -109t138.5 -45v-229q-125 4 -218 32.5t-145 75.5t-77 103t-25 122zM492.5 1507.5q-6.5 10.5 3.5 38.5l100 201q23 51 70 51h178q27 0 34 -14.5t-8 -36.5 l-149 -217q-19 -33 -66 -33h-131q-25 0 -31.5 10.5zM651 -16v229q89 6 139 45.5t50 108.5v659q0 68 -50 107.5t-139 44.5v231q124 -4 217 -32.5t145.5 -76.5t77.5 -104t25 -121v-758q0 -66 -25 -122t-77.5 -103t-145.5 -75.5t-217 -32.5z" />
<glyph unicode="&#xd4;" horiz-adv-x="1239" d="M121 317v758q0 52 15 98t49.5 88.5t87 73.5t132.5 51t181 23v-231q-90 -5 -138.5 -44t-48.5 -108v-659q0 -70 48.5 -109t138.5 -45v-229q-125 4 -218 32.5t-145 75.5t-77 103t-25 122zM333 1510.5q-8 13.5 7 35.5l149 201q35 51 80 51h99q40 0 80 -51l149 -201 q15 -22 8 -35.5t-35 -13.5h-131q-47 0 -69 49l-52 92l-51 -92q-20 -49 -71 -49h-129q-26 0 -34 13.5zM651 -16v229q89 6 139 45.5t50 108.5v659q0 68 -50 107.5t-139 44.5v231q124 -4 217 -32.5t145.5 -76.5t77.5 -104t25 -121v-758q0 -66 -25 -122t-77.5 -103t-145.5 -75.5 t-217 -32.5z" />
<glyph unicode="&#xd5;" horiz-adv-x="1239" d="M121 317v758q0 52 15 98t49.5 88.5t87 73.5t132.5 51t181 23v-231q-90 -5 -138.5 -44t-48.5 -108v-659q0 -70 48.5 -109t138.5 -45v-229q-125 4 -218 32.5t-145 75.5t-77 103t-25 122zM270 1563l9 84q7 75 57.5 117t122.5 42q69 0 119 -26l88 -43q6 -3 20.5 -10.5t22 -11 t17 -6.5t15.5 -3q20 0 28.5 11t10.5 38l2 12q4 25 17 35t39 10h88q46 0 43 -59l-6 -80q-7 -78 -54.5 -119t-115.5 -41q-73 0 -131 27l-89 39l-27 13.5t-30 13.5t-20 4q-19 0 -27.5 -11.5t-11.5 -39.5v-11q-4 -27 -16.5 -36t-39.5 -9h-88q-46 0 -43 60zM651 -16v229 q89 6 139 45.5t50 108.5v659q0 68 -50 107.5t-139 44.5v231q124 -4 217 -32.5t145.5 -76.5t77.5 -104t25 -121v-758q0 -66 -25 -122t-77.5 -103t-145.5 -75.5t-217 -32.5z" />
<glyph unicode="&#xd6;" horiz-adv-x="1239" d="M121 317v758q0 52 15 98t49.5 88.5t87 73.5t132.5 51t181 23v-231q-90 -5 -138.5 -44t-48.5 -108v-659q0 -70 48.5 -109t138.5 -45v-229q-125 4 -218 32.5t-145 75.5t-77 103t-25 122zM377 1550v191q0 28 11.5 40.5t37.5 12.5h100q27 0 37 -12t10 -41v-191 q0 -28 -10 -39.5t-37 -11.5h-100q-26 0 -37.5 11.5t-11.5 39.5zM651 -16v229q89 6 139 45.5t50 108.5v659q0 68 -50 107.5t-139 44.5v231q124 -4 217 -32.5t145.5 -76.5t77.5 -104t25 -121v-758q0 -66 -25 -122t-77.5 -103t-145.5 -75.5t-217 -32.5zM664 1550v191 q0 28 11 40.5t38 12.5h100q26 0 36.5 -12.5t10.5 -40.5v-191q0 -28 -10.5 -39.5t-36.5 -11.5h-100q-27 0 -38 11.5t-11 39.5z" />
<glyph unicode="&#xd7;" horiz-adv-x="1107" d="M124.5 560.5q4.5 15.5 29.5 29.5l192 110l111 -192l-193 -111q-23 -14 -39.5 -10t-31.5 27l-60 106q-13 25 -8.5 40.5zM258 985q-26 45 16 70l105 61q44 25 70 -20l399 -693q14 -25 10 -41.5t-27 -29.5l-104 -60q-23 -15 -39 -10.5t-31 29.5zM651 877l195 112 q47 26 69 -16l62 -105q26 -45 -21 -69l-196 -115z" />
<glyph unicode="&#xd8;" horiz-adv-x="1239" d="M121 315v756q0 68 26.5 125.5t82 105.5t155 75.5t233.5 27.5q116 0 201 -21l-108 -219q-49 11 -93 11q-104 0 -161.5 -39t-57.5 -113v-487l-202 -416q-76 82 -76 194zM188.5 -58q-4.5 16 6.5 38l706 1429q12 25 26 38t38 13h59q42 0 18 -51l-706 -1429 q-15 -31 -27.5 -42.5t-38.5 -11.5h-59q-18 0 -22.5 16zM420 2l106 219q54 -12 92 -12q104 0 163 39.5t59 113.5v500l200 406q76 -76 76 -197v-756q0 -68 -26.5 -125.5t-82.5 -106t-155.5 -76t-233.5 -27.5q-112 0 -198 22z" />
<glyph unicode="&#xd9;" horiz-adv-x="1259" d="M131 317v1022q0 28 12 41t39 13h178q50 0 50 -54v-972q0 -70 48 -109t138 -45v-229q-124 4 -217 32.5t-145.5 75.5t-77.5 103t-25 122zM354 1783q7 15 35 15h178q47 0 70 -51l98 -201q22 -51 -24 -51h-133q-42 0 -68 35l-148 215q-15 23 -8 38zM662 -16v229q90 6 139 45 t49 109v972q0 28 12 41t39 13h178q27 0 37 -12.5t10 -41.5v-1022q0 -66 -24.5 -122t-77 -103t-145 -75.5t-217.5 -32.5z" />
<glyph unicode="&#xda;" horiz-adv-x="1259" d="M131 317v1022q0 28 12 41t39 13h178q50 0 50 -54v-972q0 -70 48 -109t138 -45v-229q-124 4 -217 32.5t-145.5 75.5t-77.5 103t-25 122zM523 1507.5q-7 10.5 3 38.5l101 201q23 51 69 51h178q27 0 34.5 -14.5t-7.5 -36.5l-149 -217q-19 -33 -66 -33h-131q-25 0 -32 10.5z M662 -16v229q90 6 139 45t49 109v972q0 28 12 41t39 13h178q27 0 37 -12.5t10 -41.5v-1022q0 -66 -24.5 -122t-77 -103t-145 -75.5t-217.5 -32.5z" />
<glyph unicode="&#xdb;" horiz-adv-x="1259" d="M131 317v1022q0 28 12 41t39 13h178q50 0 50 -54v-972q0 -70 48 -109t138 -45v-229q-124 4 -217 32.5t-145.5 75.5t-77.5 103t-25 122zM343 1510.5q-8 13.5 7 35.5l150 201q35 51 80 51h98q40 0 80 -51l149 -201q15 -22 8 -35.5t-34 -13.5h-131q-48 0 -70 49l-51 92 l-51 -92q-20 -49 -72 -49h-129q-26 0 -34 13.5zM662 -16v229q90 6 139 45t49 109v972q0 28 12 41t39 13h178q27 0 37 -12.5t10 -41.5v-1022q0 -66 -24.5 -122t-77 -103t-145 -75.5t-217.5 -32.5z" />
<glyph unicode="&#xdc;" horiz-adv-x="1259" d="M131 317v1022q0 28 12 41t39 13h178q50 0 50 -54v-972q0 -70 48 -109t138 -45v-229q-124 4 -217 32.5t-145.5 75.5t-77.5 103t-25 122zM387 1550v191q0 28 11.5 40.5t37.5 12.5h101q27 0 37 -12t10 -41v-191q0 -28 -10 -39.5t-37 -11.5h-101q-26 0 -37.5 11.5t-11.5 39.5 zM662 -16v229q90 6 139 45t49 109v972q0 28 12 41t39 13h178q27 0 37 -12.5t10 -41.5v-1022q0 -66 -24.5 -122t-77 -103t-145 -75.5t-217.5 -32.5zM674 1550v191q0 28 11 40.5t38 12.5h100q26 0 36.5 -12.5t10.5 -40.5v-191q0 -28 -10.5 -39.5t-36.5 -11.5h-100 q-27 0 -38 11.5t-11 39.5z" />
<glyph unicode="&#xdd;" horiz-adv-x="1116" d="M30 1378.5q10 14.5 38 14.5h200q42 0 62 -52l368 -868v-422q0 -27 -11 -39t-38 -12h-178q-27 0 -39 12t-12 39v443l-389 847q-11 23 -1 37.5zM470 1507.5q-7 10.5 3 38.5l100 201q23 51 70 51h178q27 0 34.5 -14.5t-7.5 -36.5l-150 -217q-19 -33 -65 -33h-131 q-25 0 -32 10.5zM600 874l213 467q11 26 23 39t36 13h177q27 0 37 -13.5t-1 -38.5l-358 -763z" />
<glyph unicode="&#xde;" horiz-adv-x="1187" d="M143 51v1290q0 27 11.5 39.5t38.5 12.5h178q27 0 38 -12.5t11 -39.5v-1290q0 -27 -11 -39t-38 -12h-178q-27 0 -38.5 12t-11.5 39zM485 178v228h138q105 0 163 39t58 114v80q0 75 -58 114.5t-163 39.5h-138v227h138q134 0 233 -27.5t154.5 -75.5t81.5 -105.5t26 -125.5 v-174q0 -68 -26 -125.5t-81.5 -105.5t-154.5 -75.5t-233 -27.5h-138z" />
<glyph unicode="&#xdf;" horiz-adv-x="1312" d="M39 854v102q0 26 12 37t39 13l103 10h8v131q0 136 110 216.5t324 86.5v-193q-166 -11 -166 -127v-327h-379q-28 0 -39.5 11.5t-11.5 39.5zM201 53v688h268v-688q0 -28 -11 -40.5t-38 -12.5h-170q-27 0 -38 12.5t-11 40.5zM557 268v11q0 28 11.5 39.5t37.5 11.5h117 q28 0 39.5 -11.5t11.5 -39.5v-23q0 -45 21 -69.5t71 -30.5v-172q-174 7 -241.5 77t-67.5 207zM561 739v35q0 127 135 187l92 38q80 36 80 101v33q0 113 -168 124v193q213 -6 315.5 -85t102.5 -216v-72q0 -65 -39.5 -114t-101.5 -76l-137 -60q-56 -22 -56 -51v-8 q0 -37 66 -63l237 -109q72 -32 127.5 -90.5t55.5 -134.5v-92q0 -284 -338 -295v172q94 11 94 102v66q0 50 -78 82l-219 96q-80 34 -124 89t-44 148z" />
<glyph unicode="&#xe0;" horiz-adv-x="1058" d="M94 240v92q0 110 81 184t226 74h217v-189h-167q-95 0 -95 -90v-32q0 -42 28.5 -62t74.5 -20q78 0 159 45v-197q-109 -61 -229 -61q-145 0 -220 73.5t-75 182.5zM121 715v26q0 295 416 295q217 0 314 -75.5t97 -219.5v-688q0 -28 -12 -40.5t-39 -12.5h-164q-27 0 -38 12.5 t-11 40.5v670q0 57 -35 86t-119 29q-86 0 -121.5 -25.5t-35.5 -81.5v-16q0 -28 -11.5 -39.5t-37.5 -11.5h-152q-28 0 -39.5 11.5t-11.5 39.5zM281.5 1435.5q6.5 14.5 33.5 14.5h179q48 0 71 -51l99 -201q11 -28 4 -38.5t-31 -10.5h-133q-42 0 -66 33l-147 217 q-16 22 -9.5 36.5z" />
<glyph unicode="&#xe1;" horiz-adv-x="1058" d="M94 240v92q0 110 81 184t226 74h217v-189h-167q-95 0 -95 -90v-32q0 -42 28.5 -62t74.5 -20q78 0 159 45v-197q-109 -61 -229 -61q-145 0 -220 73.5t-75 182.5zM121 715v26q0 295 416 295q217 0 314 -75.5t97 -219.5v-688q0 -28 -12 -40.5t-39 -12.5h-164q-27 0 -38 12.5 t-11 40.5v670q0 57 -35 86t-119 29q-86 0 -121.5 -25.5t-35.5 -81.5v-16q0 -28 -11.5 -39.5t-37.5 -11.5h-152q-28 0 -39.5 11.5t-11.5 39.5zM395 1159.5q-7 10.5 4 38.5l99 201q23 51 71 51h179q27 0 33.5 -14.5t-9.5 -36.5l-147 -217q-24 -33 -66 -33h-133q-24 0 -31 10.5 z" />
<glyph unicode="&#xe2;" horiz-adv-x="1058" d="M94 240v92q0 110 81 184t226 74h217v-189h-167q-95 0 -95 -90v-32q0 -42 28.5 -62t74.5 -20q78 0 159 45v-197q-109 -61 -229 -61q-145 0 -220 73.5t-75 182.5zM121 715v26q0 295 416 295q217 0 314 -75.5t97 -219.5v-688q0 -28 -12 -40.5t-39 -12.5h-164q-27 0 -38 12.5 t-11 40.5v670q0 57 -35 86t-119 29q-86 0 -121.5 -25.5t-35.5 -81.5v-16q0 -28 -11.5 -39.5t-37.5 -11.5h-152q-28 0 -39.5 11.5t-11.5 39.5zM249 1162.5q-8 13.5 7 35.5l150 201q35 51 79 51h99q45 0 80 -51l149 -201q15 -22 7 -35.5t-34 -13.5h-131q-47 0 -69 49l-51 92 l-52 -92q-20 -49 -69 -49h-131q-26 0 -34 13.5z" />
<glyph unicode="&#xe3;" horiz-adv-x="1058" d="M94 240v92q0 110 81 184t226 74h217v-189h-167q-95 0 -95 -90v-32q0 -42 28.5 -62t74.5 -20q78 0 159 45v-197q-109 -61 -229 -61q-145 0 -220 73.5t-75 182.5zM121 715v26q0 295 416 295q217 0 314 -75.5t97 -219.5v-688q0 -28 -12 -40.5t-39 -12.5h-164q-27 0 -38 12.5 t-11 40.5v670q0 57 -35 86t-119 29q-86 0 -121.5 -25.5t-35.5 -81.5v-16q0 -28 -11.5 -39.5t-37.5 -11.5h-152q-28 0 -39.5 11.5t-11.5 39.5zM193 1196l8 86q6 75 56.5 116.5t121.5 41.5q65 0 121 -27l86 -41q8 -4 22 -10.5t22 -10.5t17.5 -7t16.5 -3q20 0 28 11.5t10 38.5 v10q4 25 17 35t39 10h88q49 0 43 -60l-6 -79q-6 -78 -53.5 -119t-114.5 -41q-69 0 -131 27l-88 38q-10 4 -29 13.5t-30 13.5t-19 4q-20 0 -28.5 -11t-10.5 -38l-2 -12q-3 -25 -15 -35t-38 -10h-91q-47 0 -40 59z" />
<glyph unicode="&#xe4;" horiz-adv-x="1058" d="M94 240v92q0 110 81 184t226 74h217v-189h-167q-95 0 -95 -90v-32q0 -42 28.5 -62t74.5 -20q78 0 159 45v-197q-109 -61 -229 -61q-145 0 -220 73.5t-75 182.5zM121 715v26q0 295 416 295q217 0 314 -75.5t97 -219.5v-688q0 -28 -12 -40.5t-39 -12.5h-164q-27 0 -38 12.5 t-11 40.5v670q0 57 -35 86t-119 29q-86 0 -121.5 -25.5t-35.5 -81.5v-16q0 -28 -11.5 -39.5t-37.5 -11.5h-152q-28 0 -39.5 11.5t-11.5 39.5zM291 1204v191q0 27 12 39t39 12h100q26 0 36.5 -11.5t10.5 -39.5v-191q0 -28 -10.5 -39.5t-36.5 -11.5h-100q-27 0 -39 12t-12 39z M578 1204v191q0 28 11.5 39.5t39.5 11.5h100q26 0 36.5 -11.5t10.5 -39.5v-191q0 -28 -10.5 -39.5t-36.5 -11.5h-100q-28 0 -39.5 11.5t-11.5 39.5z" />
<glyph unicode="&#xe5;" horiz-adv-x="1058" d="M94 240v92q0 110 81 184t226 74h217v-189h-167q-95 0 -95 -90v-32q0 -42 28.5 -62t74.5 -20q78 0 159 45v-197q-109 -61 -229 -61q-145 0 -220 73.5t-75 182.5zM121 715v26q0 295 416 295q217 0 314 -75.5t97 -219.5v-688q0 -28 -12 -40.5t-39 -12.5h-164q-27 0 -38 12.5 t-11 40.5v670q0 57 -35 86t-119 29q-86 0 -121.5 -25.5t-35.5 -81.5v-16q0 -28 -11.5 -39.5t-37.5 -11.5h-152q-28 0 -39.5 11.5t-11.5 39.5zM313 1270v69q0 61 49.5 104t145.5 50v-117q-51 -9 -51 -57v-31q0 -48 51 -57v-115q-97 6 -146 48t-49 106zM573 1116v115 q50 10 50 57v31q0 47 -50 57v117q94 -7 143.5 -50t49.5 -104v-69q0 -62 -49.5 -105t-143.5 -49z" />
<glyph unicode="&#xe6;" horiz-adv-x="1607" d="M94 240v86q0 110 81 184t226 74h217v-181h-167q-95 0 -95 -90v-39q0 -42 28.5 -61.5t74.5 -19.5q76 0 164 53q9 -116 63 -174q-143 -88 -297 -88q-145 0 -220 73.5t-75 182.5zM121 715v28q0 293 416 293q193 0 274 -94q97 94 295 94q412 0 412 -301v-233q0 -47 -48 -47 h-458v178h254v90q0 115 -160 115q-86 0 -123 -29t-37 -86v-430q0 -56 36.5 -82.5t123.5 -26.5q85 0 122.5 27.5t37.5 83.5v14q0 26 11.5 37.5t37.5 11.5h143q28 0 39.5 -11.5t11.5 -37.5v-24q0 -145 -94.5 -223t-308.5 -78q-68 0 -126.5 8.5t-114.5 29.5t-95 53.5t-62.5 85 t-23.5 120.5v454q0 107 -154 107q-86 0 -121.5 -25t-35.5 -82v-20q0 -51 -49 -51h-152q-27 0 -39 12t-12 39z" />
<glyph unicode="&#xe7;" horiz-adv-x="1007" d="M100 287v448q0 137 95 216t294 85v-215q-65 -4 -92.5 -29.5t-27.5 -76.5v-408q0 -52 27.5 -78t92.5 -30v-215q-389 11 -389 303zM291 -340q0 27 11.5 38t39.5 11h201q39 0 39 31q0 33 -39 33h-154q-43 0 -54 13.5t-9 47.5l8 74h252q83 0 131.5 -41.5t48.5 -126.5 q0 -86 -48.5 -129t-131.5 -43h-244q-28 0 -39.5 11.5t-11.5 39.5v41zM555 -16v213q69 4 99 30.5t30 79.5v31q0 28 11.5 39.5t39.5 11.5h158q26 0 37.5 -11.5t11.5 -39.5v-51q0 -137 -94.5 -216.5t-292.5 -86.5zM555 823v213q198 -6 292.5 -85t94.5 -216v-35q0 -27 -11 -38 t-38 -11h-158q-28 0 -39.5 11t-11.5 38v15q0 52 -30 78t-99 30z" />
<glyph unicode="&#xe8;" horiz-adv-x="1021" d="M100 287v448q0 143 102 222t320 79q412 0 412 -301v-237q0 -25 -11 -36t-36 -11h-459v180h254v92q0 113 -160 113t-160 -113v-426q0 -56 37.5 -83.5t122.5 -27.5t122.5 27.5t37.5 83.5v12q0 27 12 39t39 12h141q52 0 52 -51v-22q0 -146 -94.5 -224.5t-309.5 -78.5 q-422 0 -422 303zM242.5 1435.5q6.5 14.5 33.5 14.5h179q48 0 71 -51l99 -201q11 -28 4 -38.5t-31 -10.5h-133q-42 0 -66 33l-147 217q-16 22 -9.5 36.5z" />
<glyph unicode="&#xe9;" horiz-adv-x="1021" d="M100 287v448q0 143 102 222t320 79q412 0 412 -301v-237q0 -25 -11 -36t-36 -11h-459v180h254v92q0 113 -160 113t-160 -113v-426q0 -56 37.5 -83.5t122.5 -27.5t122.5 27.5t37.5 83.5v12q0 27 12 39t39 12h141q52 0 52 -51v-22q0 -146 -94.5 -224.5t-309.5 -78.5 q-422 0 -422 303zM393 1159.5q-7 10.5 4 38.5l99 201q23 51 71 51h178q27 0 33.5 -14.5t-8.5 -36.5l-147 -217q-24 -33 -66 -33h-133q-24 0 -31 10.5z" />
<glyph unicode="&#xea;" horiz-adv-x="1021" d="M100 287v448q0 143 102 222t320 79q412 0 412 -301v-237q0 -25 -11 -36t-36 -11h-459v180h254v92q0 113 -160 113t-160 -113v-426q0 -56 37.5 -83.5t122.5 -27.5t122.5 27.5t37.5 83.5v12q0 27 12 39t39 12h141q52 0 52 -51v-22q0 -146 -94.5 -224.5t-309.5 -78.5 q-422 0 -422 303zM234.5 1162.5q-7.5 13.5 7.5 35.5l149 201q35 51 80 51h98q45 0 80 -51l150 -201q15 -22 7 -35.5t-34 -13.5h-131q-48 0 -70 49l-51 92l-51 -92q-8 -20 -26.5 -34.5t-43.5 -14.5h-131q-26 0 -33.5 13.5z" />
<glyph unicode="&#xeb;" horiz-adv-x="1021" d="M100 287v448q0 143 102 222t320 79q412 0 412 -301v-237q0 -25 -11 -36t-36 -11h-459v180h254v92q0 113 -160 113t-160 -113v-426q0 -56 37.5 -83.5t122.5 -27.5t122.5 27.5t37.5 83.5v12q0 27 12 39t39 12h141q52 0 52 -51v-22q0 -146 -94.5 -224.5t-309.5 -78.5 q-422 0 -422 303zM274 1204v191q0 51 52 51h100q26 0 36.5 -11.5t10.5 -39.5v-191q0 -28 -10.5 -39.5t-36.5 -11.5h-100q-52 0 -52 51zM561 1204v191q0 28 11.5 39.5t39.5 11.5h101q26 0 36.5 -11.5t10.5 -39.5v-191q0 -28 -10.5 -39.5t-36.5 -11.5h-101q-28 0 -39.5 11.5 t-11.5 39.5z" />
<glyph unicode="&#xec;" d="M-29.5 1435.5q6.5 14.5 33.5 14.5h178q49 0 72 -51l98 -201q11 -28 4.5 -38.5t-30.5 -10.5h-133q-42 0 -66 33l-147 217q-16 22 -9.5 36.5zM121 51v918q0 28 11.5 39.5t37.5 11.5h172q26 0 36.5 -11.5t10.5 -39.5v-918q0 -27 -10.5 -39t-36.5 -12h-172q-49 0 -49 51z" />
<glyph unicode="&#xed;" d="M121 51v918q0 28 11.5 39.5t37.5 11.5h172q26 0 36.5 -11.5t10.5 -39.5v-918q0 -27 -10.5 -39t-36.5 -12h-172q-49 0 -49 51zM147.5 1159.5q-6.5 10.5 4.5 38.5l98 201q23 51 72 51h178q27 0 33.5 -14.5t-9.5 -36.5l-147 -217q-24 -33 -66 -33h-133q-24 0 -30.5 10.5z " />
<glyph unicode="&#xee;" d="M-23.5 1162.5q-7.5 13.5 7.5 35.5l149 201q35 51 80 51h98q45 0 80 -51l150 -201q15 -22 7 -35.5t-34 -13.5h-131q-48 0 -70 49l-51 92l-51 -92q-8 -20 -26.5 -34.5t-43.5 -14.5h-131q-26 0 -33.5 13.5zM121 51v918q0 28 11.5 39.5t37.5 11.5h172q26 0 36.5 -11.5 t10.5 -39.5v-918q0 -27 -10.5 -39t-36.5 -12h-172q-49 0 -49 51z" />
<glyph unicode="&#xef;" d="M14 1204v191q0 51 52 51h100q26 0 36.5 -11.5t10.5 -39.5v-191q0 -28 -10.5 -39.5t-36.5 -11.5h-100q-52 0 -52 51zM121 51v918q0 28 11.5 39.5t37.5 11.5h172q26 0 36.5 -11.5t10.5 -39.5v-918q0 -27 -10.5 -39t-36.5 -12h-172q-49 0 -49 51zM301 1204v191 q0 28 11.5 39.5t39.5 11.5h101q26 0 36.5 -11.5t10.5 -39.5v-191q0 -28 -10.5 -39.5t-36.5 -11.5h-101q-28 0 -39.5 11.5t-11.5 39.5z" />
<glyph unicode="&#xf0;" horiz-adv-x="1163" d="M100 285v452q0 141 74.5 220t222.5 79q134 0 254 -69v-213q-96 51 -170 51q-65 0 -88.5 -29.5t-23.5 -77.5v-391q0 -104 141 -110v-213q-204 6 -307 85.5t-103 215.5zM295 1315v84q0 27 12.5 39t40.5 12h199q218 0 327 -88l91 49q43 24 69 -18l19 -31q27 -41 -21 -66 l-80 -45q17 -44 17 -102v-864q0 -137 -97.5 -216t-296.5 -85v213q142 6 142 110v789q0 9 -6 18l-74 -35q-43 -24 -68 19l-18 30q-23 41 20 66l91 47q-41 23 -115 23h-199q-53 0 -53 51z" />
<glyph unicode="&#xf1;" horiz-adv-x="1116" d="M121 53v918q0 26 11.5 37.5t37.5 11.5h170q27 0 38 -11t11 -38v-918q0 -28 -10.5 -40.5t-36.5 -12.5h-172q-26 0 -37.5 12.5t-11.5 40.5zM205 1212l8 86q6 75 56.5 116.5t121.5 41.5q67 0 121 -26l86 -41q8 -4 22 -10.5t22 -10.5t17.5 -7t16.5 -3q20 0 28.5 11t10.5 38 v10q4 26 16.5 35.5t38.5 9.5h88q49 0 43 -59l-6 -80q-6 -78 -53.5 -119t-114.5 -41q-69 0 -131 27l-88 39q-10 4 -29 13.5t-30 13.5t-19 4q-20 0 -28.5 -11.5t-10.5 -38.5l-2 -12q-3 -25 -15 -35t-38 -10h-90q-48 0 -41 59zM455 754v217q120 65 256 65q138 0 217.5 -76 t79.5 -198v-709q0 -28 -12 -40.5t-40 -12.5h-165q-54 0 -54 53v641q0 58 -24 83.5t-86 25.5q-87 0 -172 -49z" />
<glyph unicode="&#xf2;" horiz-adv-x="1085" d="M100 287v448q0 135 103.5 215t306.5 86v-215q-141 -9 -141 -108v-404q0 -103 141 -112v-213q-204 6 -307 86t-103 217zM267.5 1435.5q6.5 14.5 33.5 14.5h178q49 0 72 -51l98 -201q11 -28 4.5 -38.5t-30.5 -10.5h-134q-41 0 -65 33l-148 217q-15 22 -8.5 36.5zM575 -16 v213q142 9 142 112v404q0 99 -142 108v215q202 -6 306 -86.5t104 -214.5v-448q0 -137 -104 -217t-306 -86z" />
<glyph unicode="&#xf3;" horiz-adv-x="1085" d="M100 287v448q0 135 103.5 215t306.5 86v-215q-141 -9 -141 -108v-404q0 -103 141 -112v-213q-204 6 -307 86t-103 217zM430 1159.5q-7 10.5 4 38.5l98 201q23 51 72 51h178q27 0 33.5 -14.5t-8.5 -36.5l-148 -217q-24 -33 -65 -33h-133q-24 0 -31 10.5zM575 -16v213 q142 9 142 112v404q0 99 -142 108v215q202 -6 306 -86.5t104 -214.5v-448q0 -137 -104 -217t-306 -86z" />
<glyph unicode="&#xf4;" horiz-adv-x="1085" d="M100 287v448q0 135 103.5 215t306.5 86v-215q-141 -9 -141 -108v-404q0 -103 141 -112v-213q-204 6 -307 86t-103 217zM261 1162.5q-8 13.5 7 35.5l150 201q35 51 80 51h98q45 0 80 -51l149 -201q15 -22 7.5 -35.5t-33.5 -13.5h-131q-48 0 -70 49l-51 92l-51 -92 q-8 -20 -26.5 -34.5t-43.5 -14.5h-131q-26 0 -34 13.5zM575 -16v213q142 9 142 112v404q0 99 -142 108v215q202 -6 306 -86.5t104 -214.5v-448q0 -137 -104 -217t-306 -86z" />
<glyph unicode="&#xf5;" horiz-adv-x="1085" d="M100 287v448q0 135 103.5 215t306.5 86v-215q-141 -9 -141 -108v-404q0 -103 141 -112v-213q-204 6 -307 86t-103 217zM199 1196l8 86q6 75 56.5 116.5t121.5 41.5q65 0 121 -27l86 -41q8 -4 22 -10.5t22 -10.5t17.5 -7t16.5 -3q20 0 28.5 11.5t10.5 38.5v10 q4 26 16.5 35.5t38.5 9.5h88q49 0 43 -60l-6 -79q-6 -78 -53.5 -119t-114.5 -41q-69 0 -131 27l-88 38q-10 4 -29 13.5t-30 13.5t-19 4q-20 0 -28.5 -11t-10.5 -38l-2 -12q-3 -25 -15 -35t-38 -10h-90q-48 0 -41 59zM575 -16v213q142 9 142 112v404q0 99 -142 108v215 q202 -6 306 -86.5t104 -214.5v-448q0 -137 -104 -217t-306 -86z" />
<glyph unicode="&#xf6;" horiz-adv-x="1085" d="M100 287v448q0 135 103.5 215t306.5 86v-215q-141 -9 -141 -108v-404q0 -103 141 -112v-213q-204 6 -307 86t-103 217zM301 1204v191q0 27 12 39t39 12h101q26 0 36.5 -11.5t10.5 -39.5v-191q0 -28 -10.5 -39.5t-36.5 -11.5h-101q-27 0 -39 12t-12 39zM575 -16v213 q142 9 142 112v404q0 99 -142 108v215q202 -6 306 -86.5t104 -214.5v-448q0 -137 -104 -217t-306 -86zM588 1204v191q0 28 11.5 39.5t39.5 11.5h100q26 0 36.5 -11.5t10.5 -39.5v-191q0 -28 -10.5 -39.5t-36.5 -11.5h-100q-28 0 -39.5 11.5t-11.5 39.5z" />
<glyph unicode="&#xf7;" horiz-adv-x="1189" d="M121 549v123q0 27 12 38t39 11h844q28 0 39.5 -11t11.5 -38v-123q0 -26 -11.5 -37.5t-39.5 -11.5h-844q-51 0 -51 49zM457 164v166q0 28 11.5 39.5t39.5 11.5h174q27 0 38 -11.5t11 -39.5v-166q0 -28 -11 -39.5t-38 -11.5h-174q-28 0 -39.5 11.5t-11.5 39.5zM457 893v166 q0 28 11.5 39.5t39.5 11.5h174q27 0 38 -11.5t11 -39.5v-166q0 -28 -11 -39.5t-38 -11.5h-174q-28 0 -39.5 11.5t-11.5 39.5z" />
<glyph unicode="&#xf8;" horiz-adv-x="1085" d="M100 287v448q0 141 111.5 221t331.5 80q69 0 137 -10l-105 -207q-12 4 -43 4q-163 -3 -163 -110v-262l-187 -357q-82 73 -82 193zM179.5 -51.5q-2.5 18.5 8.5 33.5l574 1060q9 18 15 27t19 18t29 9h60q22 0 23.5 -17t-11.5 -37l-571 -1060q-17 -29 -30.5 -40.5 t-39.5 -11.5h-53q-21 0 -23.5 18.5zM403 -4l107 205q8 -4 43 -4q164 3 164 112v264l188 355q80 -71 80 -193v-448q0 -142 -111 -222.5t-331 -80.5q-82 0 -140 12z" />
<glyph unicode="&#xf9;" horiz-adv-x="1103" d="M111 258v711q0 28 11.5 39.5t37.5 11.5h168q28 0 39.5 -11.5t11.5 -39.5v-643q0 -58 24 -83.5t86 -25.5q76 0 160 45v-217q-105 -61 -243 -61q-137 0 -216 76t-79 198zM269.5 1435.5q6.5 14.5 33.5 14.5h178q49 0 72 -51l98 -201q11 -28 4.5 -38.5t-30.5 -10.5h-133 q-42 0 -66 33l-147 217q-16 22 -9.5 36.5zM715 51v918q0 28 11.5 39.5t39.5 11.5h170q26 0 37.5 -11.5t11.5 -39.5v-918q0 -27 -12 -39t-39 -12h-168q-28 0 -39.5 11.5t-11.5 39.5z" />
<glyph unicode="&#xfa;" horiz-adv-x="1103" d="M111 258v711q0 28 11.5 39.5t37.5 11.5h168q28 0 39.5 -11.5t11.5 -39.5v-643q0 -58 24 -83.5t86 -25.5q76 0 160 45v-217q-105 -61 -243 -61q-137 0 -216 76t-79 198zM434 1159.5q-7 10.5 4 38.5l99 201q23 51 71 51h178q27 0 33.5 -14.5t-8.5 -36.5l-147 -217 q-24 -33 -66 -33h-133q-24 0 -31 10.5zM715 51v918q0 28 11.5 39.5t39.5 11.5h170q26 0 37.5 -11.5t11.5 -39.5v-918q0 -27 -12 -39t-39 -12h-168q-28 0 -39.5 11.5t-11.5 39.5z" />
<glyph unicode="&#xfb;" horiz-adv-x="1103" d="M111 258v711q0 28 11.5 39.5t37.5 11.5h168q28 0 39.5 -11.5t11.5 -39.5v-643q0 -58 24 -83.5t86 -25.5q76 0 160 45v-217q-105 -61 -243 -61q-137 0 -216 76t-79 198zM240.5 1162.5q-7.5 13.5 7.5 35.5l149 201q35 51 80 51h98q45 0 80 -51l150 -201q15 -22 7 -35.5 t-34 -13.5h-131q-47 0 -69 49l-52 92l-51 -92q-20 -49 -69 -49h-132q-26 0 -33.5 13.5zM715 51v918q0 28 11.5 39.5t39.5 11.5h170q26 0 37.5 -11.5t11.5 -39.5v-918q0 -27 -12 -39t-39 -12h-168q-28 0 -39.5 11.5t-11.5 39.5z" />
<glyph unicode="&#xfc;" horiz-adv-x="1103" d="M111 258v711q0 28 11.5 39.5t37.5 11.5h168q28 0 39.5 -11.5t11.5 -39.5v-643q0 -58 24 -83.5t86 -25.5q76 0 160 45v-217q-105 -61 -243 -61q-137 0 -216 76t-79 198zM301 1204v191q0 27 12 39t39 12h101q26 0 36.5 -11.5t10.5 -39.5v-191q0 -28 -10.5 -39.5 t-36.5 -11.5h-101q-27 0 -39 12t-12 39zM588 1204v191q0 28 11.5 39.5t39.5 11.5h100q26 0 36.5 -11.5t10.5 -39.5v-191q0 -28 -10.5 -39.5t-36.5 -11.5h-100q-28 0 -39.5 11.5t-11.5 39.5zM715 51v918q0 28 11.5 39.5t39.5 11.5h170q26 0 37.5 -11.5t11.5 -39.5v-918 q0 -27 -12 -39t-39 -12h-168q-28 0 -39.5 11.5t-11.5 39.5z" />
<glyph unicode="&#xfd;" horiz-adv-x="970" d="M23 969q-9 25 5 38t42 13h170q26 0 37 -12t20 -39l162 -504l-125 -393zM268 -360l420 1329q10 28 22 39.5t38 11.5h153q29 0 43.5 -13t5.5 -38l-452 -1329q-15 -52 -58 -52h-123q-29 0 -42.5 13.5t-6.5 38.5zM387 1159.5q-7 10.5 4 38.5l98 201q23 51 72 51h178 q27 0 33.5 -14.5t-8.5 -36.5l-148 -217q-24 -33 -65 -33h-133q-24 0 -31 10.5z" />
<glyph unicode="&#xfe;" horiz-adv-x="1105" d="M121 -360v1740q0 52 49 52h170q27 0 38 -12.5t11 -39.5v-1740q0 -28 -10.5 -40t-36.5 -12h-172q-26 0 -37.5 12t-11.5 40zM455 49v215q88 -49 170 -49q65 0 88.5 29.5t23.5 79.5v374q0 48 -23.5 77.5t-88.5 29.5q-78 0 -170 -51v215q124 67 254 67q150 0 224.5 -79 t74.5 -220v-454q0 -141 -74.5 -220t-224.5 -79q-134 0 -254 65z" />
<glyph unicode="&#xff;" horiz-adv-x="970" d="M23 969q-9 25 5 38t42 13h170q26 0 37 -12t20 -39l162 -504l-125 -393zM248 1204v191q0 27 12 39t39 12h100q26 0 36.5 -11.5t10.5 -39.5v-191q0 -28 -10.5 -39.5t-36.5 -11.5h-100q-27 0 -39 12t-12 39zM268 -360l420 1329q10 28 22 39.5t38 11.5h153q29 0 43.5 -13 t5.5 -38l-452 -1329q-15 -52 -58 -52h-123q-29 0 -42.5 13.5t-6.5 38.5zM535 1204v191q0 28 11.5 39.5t39.5 11.5h100q26 0 36.5 -11.5t10.5 -39.5v-191q0 -28 -10.5 -39.5t-36.5 -11.5h-100q-28 0 -39.5 11.5t-11.5 39.5z" />
<glyph unicode="&#x152;" horiz-adv-x="1744" d="M121 317v758q0 52 15 98t49.5 88.5t87 73.5t132.5 51t181 23v-229q-90 -5 -138.5 -44t-48.5 -108v-663q0 -70 48.5 -109t138.5 -45v-227q-125 4 -218 32.5t-145 75.5t-77 103t-25 122zM651 -16v227q87 6 136.5 42.5t52.5 102.5v672q0 68 -50 107.5t-139 44.5v229 q105 -3 191 -45q6 29 47 29h227v-1393h-227q-43 0 -49 33q-78 -46 -189 -49zM1182 0v229h428q28 0 39.5 -11t11.5 -38v-129q0 -28 -11.5 -39.5t-39.5 -11.5h-428zM1182 610v221h372q29 0 41.5 -11t12.5 -38v-123q0 -49 -54 -49h-372zM1182 1163v230h407q27 0 39 -11.5 t12 -38.5v-129q0 -27 -12 -39t-39 -12h-407z" />
<glyph unicode="&#x153;" horiz-adv-x="1640" d="M100 285v450q0 135 103.5 215t306.5 86v-213q-141 -9 -141 -110v-406q0 -104 141 -110v-213q-204 6 -307 85.5t-103 215.5zM575 -16v213q68 3 105 29t37 73v414q0 101 -142 110v213q172 -5 261 -78q101 78 303 78q411 0 411 -301v-233q0 -25 -11 -36t-36 -11h-459v178 h256v90q0 115 -161 115q-160 0 -160 -115v-428q0 -56 37.5 -83.5t122.5 -27.5t123 27.5t38 83.5v14q0 27 11 38t39 11h141q28 0 39.5 -11.5t11.5 -37.5v-24q0 -145 -94.5 -223t-308.5 -78q-207 0 -303 77q-84 -71 -261 -77z" />
<glyph unicode="&#x178;" horiz-adv-x="1116" d="M30 1378.5q10 14.5 38 14.5h200q42 0 62 -52l368 -868v-422q0 -27 -11 -39t-38 -12h-178q-27 0 -39 12t-12 39v443l-389 847q-11 23 -1 37.5zM315 1550v191q0 53 50 53h100q27 0 37 -12t10 -41v-191q0 -28 -10 -39.5t-37 -11.5h-100q-27 0 -38.5 11.5t-11.5 39.5z M600 874l213 467q11 26 23 39t36 13h177q27 0 37 -13.5t-1 -38.5l-358 -763zM602 1550v191q0 28 11 40.5t38 12.5h101q26 0 36.5 -12.5t10.5 -40.5v-191q0 -28 -10.5 -39.5t-36.5 -11.5h-101q-27 0 -38 11.5t-11 39.5z" />
<glyph unicode="&#x2c6;" horiz-adv-x="724" d="M77 1162.5q-8 13.5 7 35.5l149 201q35 51 80 51h99q45 0 80 -51l149 -201q15 -22 7 -35.5t-34 -13.5h-131q-47 0 -69 49l-52 92l-51 -92q-20 -49 -69 -49h-131q-26 0 -34 13.5z" />
<glyph unicode="&#x2dc;" horiz-adv-x="835" d="M68 1196l8 86q6 75 56.5 116.5t121.5 41.5q65 0 121 -27l86 -41q8 -4 22 -10.5t22 -10.5t17.5 -7t16.5 -3q20 0 28.5 11.5t10.5 38.5v10q4 26 16.5 35.5t38.5 9.5h88q49 0 43 -60l-6 -79q-6 -78 -53.5 -119t-114.5 -41q-69 0 -131 27l-88 38q-10 4 -29 13.5t-30 13.5 t-19 4q-20 0 -28.5 -11t-10.5 -38l-2 -12q-3 -25 -15 -35t-38 -10h-90q-48 0 -41 59z" />
<glyph unicode="&#x2000;" horiz-adv-x="920" />
<glyph unicode="&#x2001;" horiz-adv-x="1841" />
<glyph unicode="&#x2002;" horiz-adv-x="920" />
<glyph unicode="&#x2003;" horiz-adv-x="1841" />
<glyph unicode="&#x2004;" horiz-adv-x="613" />
<glyph unicode="&#x2005;" horiz-adv-x="460" />
<glyph unicode="&#x2006;" horiz-adv-x="306" />
<glyph unicode="&#x2007;" horiz-adv-x="306" />
<glyph unicode="&#x2008;" horiz-adv-x="230" />
<glyph unicode="&#x2009;" horiz-adv-x="368" />
<glyph unicode="&#x200a;" horiz-adv-x="102" />
<glyph unicode="&#x2010;" horiz-adv-x="892" d="M121 530v121q0 27 12 38t39 11h549q27 0 39 -11t12 -38v-121q0 -49 -51 -49h-549q-51 0 -51 49z" />
<glyph unicode="&#x2011;" horiz-adv-x="892" d="M121 530v121q0 27 12 38t39 11h549q27 0 39 -11t12 -38v-121q0 -49 -51 -49h-549q-51 0 -51 49z" />
<glyph unicode="&#x2012;" horiz-adv-x="892" d="M121 530v121q0 27 12 38t39 11h549q27 0 39 -11t12 -38v-121q0 -49 -51 -49h-549q-51 0 -51 49z" />
<glyph unicode="&#x2013;" horiz-adv-x="1091" d="M121 530v121q0 27 12 38t39 11h748q27 0 39 -11t12 -38v-121q0 -49 -51 -49h-748q-51 0 -51 49z" />
<glyph unicode="&#x2014;" horiz-adv-x="1726" d="M121 530v121q0 27 12 38t39 11h1382q28 0 40 -11t12 -38v-121q0 -26 -12 -37.5t-40 -11.5h-1382q-51 0 -51 49z" />
<glyph unicode="&#x2018;" horiz-adv-x="561" d="M119 1085v152q0 233 295 303q27 6 40.5 -0.5t22.5 -32.5l39 -114q20 -49 -33 -64q-53 -20 -72.5 -43.5t-19.5 -62.5v-138q0 -28 -11.5 -39.5t-37.5 -11.5h-176q-27 0 -37 11.5t-10 39.5z" />
<glyph unicode="&#x2019;" horiz-adv-x="559" d="M43 1182q-19 48 33 63q53 20 72.5 44t19.5 63v137q0 28 11.5 39.5t37.5 11.5h176q27 0 37 -11.5t10 -39.5v-152q0 -233 -295 -303q-27 -6 -40.5 0.5t-22.5 32.5z" />
<glyph unicode="&#x201a;" horiz-adv-x="559" d="M43 -90q-19 48 33 63q53 20 72.5 44t19.5 63v137q0 28 11.5 39.5t37.5 11.5h176q27 0 37 -11.5t10 -39.5v-151q0 -234 -295 -304q-27 -6 -40.5 0.5t-22.5 32.5z" />
<glyph unicode="&#x201c;" horiz-adv-x="1005" d="M119 1085v152q0 233 295 303q27 6 40.5 -0.5t22.5 -32.5l39 -114q20 -49 -33 -64q-53 -20 -72.5 -43.5t-19.5 -62.5v-138q0 -28 -11.5 -39.5t-37.5 -11.5h-176q-27 0 -37 11.5t-10 39.5zM565 1085v152q0 233 295 303q27 6 41 -0.5t23 -32.5l39 -114q20 -49 -33 -64 q-53 -20 -72.5 -43.5t-19.5 -62.5v-138q0 -27 -12 -39t-38 -12h-176q-27 0 -37 11.5t-10 39.5z" />
<glyph unicode="&#x201d;" horiz-adv-x="1005" d="M43 1182q-19 48 33 63q53 20 72.5 44t19.5 63v137q0 28 11.5 39.5t37.5 11.5h176q27 0 37 -11.5t10 -39.5v-152q0 -233 -295 -303q-27 -6 -40.5 0.5t-22.5 32.5zM489 1182q-19 48 33 63q53 20 72.5 44t19.5 63v137q0 27 12 39t38 12h176q27 0 37 -11.5t10 -39.5v-152 q0 -233 -295 -303q-27 -6 -41 0.5t-23 32.5z" />
<glyph unicode="&#x201e;" horiz-adv-x="1005" d="M43 -90q-19 48 33 63q53 20 72.5 44t19.5 63v137q0 28 11.5 39.5t37.5 11.5h176q27 0 37 -11.5t10 -39.5v-151q0 -234 -295 -304q-27 -6 -40.5 0.5t-22.5 32.5zM489 -90q-19 48 33 63q53 20 72.5 44t19.5 63v137q0 27 12 39t38 12h176q27 0 37 -11.5t10 -39.5v-151 q0 -234 -295 -304q-27 -6 -41 0.5t-23 32.5z" />
<glyph unicode="&#x2022;" horiz-adv-x="559" d="M143 408v297q0 28 11.5 40.5t38.5 12.5h174q27 0 38 -12.5t11 -40.5v-297q0 -28 -11 -40t-38 -12h-174q-27 0 -38.5 12t-11.5 40z" />
<glyph unicode="&#x2026;" horiz-adv-x="1525" d="M119 51v166q0 28 11.5 39.5t39.5 11.5h174q27 0 38 -11.5t11 -39.5v-166q0 -28 -11 -39.5t-38 -11.5h-174q-28 0 -39.5 11.5t-11.5 39.5zM627 51v166q0 28 11.5 39.5t39.5 11.5h174q27 0 38 -11.5t11 -39.5v-166q0 -28 -11 -39.5t-38 -11.5h-174q-28 0 -39.5 11.5 t-11.5 39.5zM1133 51v166q0 28 11.5 39.5t39.5 11.5h174q27 0 38 -11.5t11 -39.5v-166q0 -28 -11 -39.5t-38 -11.5h-174q-28 0 -39.5 11.5t-11.5 39.5z" />
<glyph unicode="&#x202f;" horiz-adv-x="368" />
<glyph unicode="&#x2039;" horiz-adv-x="763" d="M139 360v226q0 22 12 36.5t35 30.5l387 275q20 13 36 2t16 -37v-170q0 -40 -52 -72zM193 317l204 136l176 -101q25 -15 38.5 -30t13.5 -39v-170q0 -27 -16 -37t-36 2z" />
<glyph unicode="&#x203a;" horiz-adv-x="763" d="M139 113v170q0 39 51 69l177 101l204 -136l-381 -239q-20 -12 -35.5 -2t-15.5 37zM139 723v170q0 27 15.5 37.5t35.5 -2.5l388 -275q15 -10 23 -17.5t16 -21t8 -28.5v-226l-435 291q-51 32 -51 72z" />
<glyph unicode="&#x205f;" horiz-adv-x="460" />
<glyph unicode="&#x20ac;" horiz-adv-x="1351" d="M137 518v72q0 49 51 49h62v111h-62q-27 0 -39 11t-12 38v71q0 27 12 38.5t39 11.5h62v155q0 52 13 97.5t45.5 88.5t82.5 74t128.5 51t178.5 23v-231q-170 -12 -170 -152v-106h203q28 0 39.5 -11t11.5 -39v-71q0 -27 -11.5 -38t-39.5 -11h-203v-111h203q28 0 39.5 -11.5 t11.5 -37.5v-72q0 -28 -11.5 -39.5t-39.5 -11.5h-203v-100q0 -142 170 -154v-229q-124 4 -214 32t-139.5 75.5t-72 103t-22.5 122.5v150h-62q-27 0 -39 12t-12 39zM764 -16v229q180 12 180 154v77q0 28 11.5 40t37.5 12h172q26 0 36.5 -12t10.5 -40v-127q0 -67 -22.5 -122.5 t-72.5 -103t-139.5 -75.5t-213.5 -32zM764 1178v231q99 -3 177.5 -23t128.5 -51t82.5 -74t46 -88.5t13.5 -97.5v-98q0 -28 -10.5 -39.5t-36.5 -11.5h-172q-26 0 -37.5 11.5t-11.5 39.5v49q0 70 -46 108.5t-134 43.5z" />
<glyph unicode="&#x2122;" horiz-adv-x="1886" d="M143 1247v107q0 22 9 30.5t34 8.5h562q23 0 33 -8.5t10 -30.5v-107q0 -24 -9.5 -32.5t-33.5 -8.5h-562q-25 0 -34 8.5t-9 32.5zM352 600v551h230v-551q0 -24 -9 -33.5t-32 -9.5h-146q-23 0 -33 10t-10 33zM883 600v750q0 24 9.5 33.5t33.5 9.5h168v-793q0 -43 -39 -43 h-129q-24 0 -33.5 9.5t-9.5 33.5zM1151 864v430l131 -293q4 -13 15.5 -36.5t15.5 -34.5q4 12 13.5 34t12.5 31l127 293v-438l-51 -129q-15 -37 -53 -37h-96q-42 0 -58 41zM1524 600v793h178q23 0 32 -9.5t9 -33.5v-750q0 -24 -9 -33.5t-32 -9.5h-135q-23 0 -33 10t-10 33z " />
<glyph unicode="&#x25fc;" horiz-adv-x="1024" d="M0 0v1024h1024v-1024h-1024z" />
</font>
</defs>
</svg>
