<?xml version="1.0" encoding="utf-8"?>
<!-- Generator: Adobe Illustrator 19.1.0, SVG Export Plug-In . SVG Version: 6.00 Build 0)  -->
<svg version="1.1" id="Layer_1" xmlns="http://www.w3.org/2000/svg" xmlns:xlink="http://www.w3.org/1999/xlink" x="0px" y="0px"
	 viewBox="0 0 1447 576" style="enable-background:new 0 0 1447 576;" xml:space="preserve">
<style type="text/css">
	.st0{fill:#E7C205;}
	.st1{fill:#FFFFFF;}
	.st2{font-family:'GeogrotesqueStencilB-Sb';}
	.st3{font-size:335.2471px;}
	.st4{letter-spacing:-6;}
	.st5{letter-spacing:-13;}
</style>
<g>
	<g>
		<path class="st0" d="M287.3,0L0.5,286.1L0,431.3L147.4,576l139.9-137.9L427.2,576l146.9-144.2l0.5-146.1L287.3,0z M14.3,295.4
			h116.8L14.3,412.2V295.4z M140.7,552.1L23.8,435.3h116.8V552.1z M140.7,421.7H23.8l116.8-116.8V421.7z M140.7,281.8H23.8
			L140.7,165V281.8z M154.2,552.1v-99.3v-17.5v-23.1V295.4v-23.1v-68v-48.8H271L162.4,264v31.3H271L162.4,403.9v31.3H271
			L154.2,552.1z M280.6,421.7H163.8l116.8-116.8V421.7z M280.6,281.8H163.8L280.6,165V281.8z M280.6,141.9H163.8L280.6,25.1V141.9z
			 M294.1,400.9v-96v-23.1V165v-23.1V45.7V25.1l116.8,116.8H302.3v31.3l108.6,108.6H302.3v31.3l108.6,108.6H294.1V400.9z
			 M420.5,552.1L303.7,435.3h116.8V552.1z M420.5,412.2L303.7,295.4h116.8V412.2z M420.5,272.3L303.7,155.4h116.8V272.3z
			 M550.8,435.3L434,552.1v-89.8v-27v-13.5V304.9v-23.1v-68V165l116.8,116.8H442.3v31.3l108.6,108.6H442.3v13.5H550.8z M560.4,412.2
			L443.6,295.4h116.8V412.2z"/>
	</g>
	<g>
		<text transform="matrix(1 0 0 1 645.5764 439.032)"><tspan x="0" y="0" class="st1 st2 st3 st4">Ak</tspan><tspan x="338.3" y="0" class="st1 st2 st3">u</tspan><tspan x="519" y="0" class="st1 st2 st3 st5">r</tspan><tspan x="629.9" y="0" class="st1 st2 st3">a</tspan></text>
	</g>
</g>
</svg>
